<svg width="49" height="56" viewBox="0 0 49 56" fill="none" xmlns="http://www.w3.org/2000/svg">
<path d="M18.375 9.18751L18.375 20.1254L0.771366 30.1838C0.536996 30.3179 0.342224 30.5116 0.206768 30.7452C0.0713122 30.9788 -1.79763e-05 31.2441 -1.02904e-06 31.5141L-7.55033e-07 37.7826C-7.10564e-07 38.8 0.9733 39.534 1.95139 39.2546L18.375 34.5622L18.375 44.4063L12.8625 48.5406C12.4768 48.8297 12.25 49.2842 12.25 49.7656L12.25 53.5928C12.25 54.5891 13.186 55.3202 14.1526 55.0781L24.5 52.0625L34.8474 55.0781C35.814 55.3202 36.75 54.5891 36.75 53.5928L36.75 49.7656C36.75 49.2833 36.5232 48.8297 36.1375 48.5406L30.625 44.4063L30.625 34.5622L47.0477 39.2546C48.0257 39.534 49 38.8 49 37.7826L49 31.5141C49 30.9648 48.7052 30.4575 48.2286 30.1848L30.625 20.1254L30.625 9.18751C30.625 5.8044 27.8831 6.41059e-06 24.5 6.55847e-06C21.1169 6.70635e-06 18.375 5.8044 18.375 9.18751Z" fill="#FED066"/>
</svg>
