<svg width="13" height="496" viewBox="0 0 13 496" fill="none" xmlns="http://www.w3.org/2000/svg">
<line y1="1.5" x2="13" y2="1.5" stroke="#4F4F4F" stroke-width="3"/>
<line y1="45.5" x2="13" y2="45.5" stroke="#4F4F4F" stroke-width="3"/>
<line x1="13" y1="12.5" x2="7" y2="12.5" stroke="#4F4F4F" stroke-width="3"/>
<line x1="13" y1="23.5" x2="7" y2="23.5" stroke="#4F4F4F" stroke-width="3"/>
<line x1="13" y1="35.5" x2="7" y2="35.5" stroke="#4F4F4F" stroke-width="3"/>
<line y1="89.5" x2="13" y2="89.5" stroke="#4F4F4F" stroke-width="3"/>
<line x1="13" y1="56.5" x2="7" y2="56.5" stroke="#4F4F4F" stroke-width="3"/>
<line x1="13" y1="67.5" x2="7" y2="67.5" stroke="#4F4F4F" stroke-width="3"/>
<line x1="13" y1="79.5" x2="7" y2="79.5" stroke="#4F4F4F" stroke-width="3"/>
<line y1="89.5" x2="13" y2="89.5" stroke="#4F4F4F" stroke-width="3"/>
<line x1="13" y1="56.5" x2="7" y2="56.5" stroke="#4F4F4F" stroke-width="3"/>
<line x1="13" y1="67.5" x2="7" y2="67.5" stroke="#4F4F4F" stroke-width="3"/>
<line x1="13" y1="79.5" x2="7" y2="79.5" stroke="#4F4F4F" stroke-width="3"/>
<line y1="133.5" x2="13" y2="133.5" stroke="#4F4F4F" stroke-width="3"/>
<line x1="13" y1="100.5" x2="7" y2="100.5" stroke="#4F4F4F" stroke-width="3"/>
<line x1="13" y1="111.5" x2="7" y2="111.5" stroke="#4F4F4F" stroke-width="3"/>
<line x1="13" y1="123.5" x2="7" y2="123.5" stroke="#4F4F4F" stroke-width="3"/>
<line y1="133.5" x2="13" y2="133.5" stroke="#4F4F4F" stroke-width="3"/>
<line x1="13" y1="100.5" x2="7" y2="100.5" stroke="#4F4F4F" stroke-width="3"/>
<line x1="13" y1="111.5" x2="7" y2="111.5" stroke="#4F4F4F" stroke-width="3"/>
<line x1="13" y1="123.5" x2="7" y2="123.5" stroke="#4F4F4F" stroke-width="3"/>
<line y1="177.5" x2="13" y2="177.5" stroke="#4F4F4F" stroke-width="3"/>
<line x1="13" y1="144.5" x2="7" y2="144.5" stroke="#4F4F4F" stroke-width="3"/>
<line x1="13" y1="155.5" x2="7" y2="155.5" stroke="#4F4F4F" stroke-width="3"/>
<line x1="13" y1="167.5" x2="7" y2="167.5" stroke="#4F4F4F" stroke-width="3"/>
<line y1="177.5" x2="13" y2="177.5" stroke="#4F4F4F" stroke-width="3"/>
<line x1="13" y1="144.5" x2="7" y2="144.5" stroke="#4F4F4F" stroke-width="3"/>
<line x1="13" y1="155.5" x2="7" y2="155.5" stroke="#4F4F4F" stroke-width="3"/>
<line x1="13" y1="167.5" x2="7" y2="167.5" stroke="#4F4F4F" stroke-width="3"/>
<line y1="221.5" x2="13" y2="221.5" stroke="#4F4F4F" stroke-width="3"/>
<line x1="13" y1="188.5" x2="7" y2="188.5" stroke="#4F4F4F" stroke-width="3"/>
<line x1="13" y1="199.5" x2="7" y2="199.5" stroke="#4F4F4F" stroke-width="3"/>
<line x1="13" y1="211.5" x2="7" y2="211.5" stroke="#4F4F4F" stroke-width="3"/>
<line y1="221.5" x2="13" y2="221.5" stroke="#4F4F4F" stroke-width="3"/>
<line x1="13" y1="188.5" x2="7" y2="188.5" stroke="#4F4F4F" stroke-width="3"/>
<line x1="13" y1="199.5" x2="7" y2="199.5" stroke="#4F4F4F" stroke-width="3"/>
<line x1="13" y1="211.5" x2="7" y2="211.5" stroke="#4F4F4F" stroke-width="3"/>
<line y1="270.5" x2="13" y2="270.5" stroke="#4F4F4F" stroke-width="3"/>
<line x1="13" y1="237.5" x2="7" y2="237.5" stroke="#4F4F4F" stroke-width="3"/>
<line x1="13" y1="248.5" x2="7" y2="248.5" stroke="#4F4F4F" stroke-width="3"/>
<line x1="13" y1="260.5" x2="7" y2="260.5" stroke="#4F4F4F" stroke-width="3"/>
<line y1="270.5" x2="13" y2="270.5" stroke="#4F4F4F" stroke-width="3"/>
<line x1="13" y1="237.5" x2="7" y2="237.5" stroke="#4F4F4F" stroke-width="3"/>
<line x1="13" y1="248.5" x2="7" y2="248.5" stroke="#4F4F4F" stroke-width="3"/>
<line x1="13" y1="260.5" x2="7" y2="260.5" stroke="#4F4F4F" stroke-width="3"/>
<line y1="314.5" x2="13" y2="314.5" stroke="#4F4F4F" stroke-width="3"/>
<line x1="13" y1="281.5" x2="7" y2="281.5" stroke="#4F4F4F" stroke-width="3"/>
<line x1="13" y1="292.5" x2="7" y2="292.5" stroke="#4F4F4F" stroke-width="3"/>
<line x1="13" y1="304.5" x2="7" y2="304.5" stroke="#4F4F4F" stroke-width="3"/>
<line y1="314.5" x2="13" y2="314.5" stroke="#4F4F4F" stroke-width="3"/>
<line x1="13" y1="281.5" x2="7" y2="281.5" stroke="#4F4F4F" stroke-width="3"/>
<line x1="13" y1="292.5" x2="7" y2="292.5" stroke="#4F4F4F" stroke-width="3"/>
<line x1="13" y1="304.5" x2="7" y2="304.5" stroke="#4F4F4F" stroke-width="3"/>
<line y1="359.5" x2="13" y2="359.5" stroke="#4F4F4F" stroke-width="3"/>
<line x1="13" y1="326.5" x2="7" y2="326.5" stroke="#4F4F4F" stroke-width="3"/>
<line x1="13" y1="337.5" x2="7" y2="337.5" stroke="#4F4F4F" stroke-width="3"/>
<line x1="13" y1="349.5" x2="7" y2="349.5" stroke="#4F4F4F" stroke-width="3"/>
<line y1="359.5" x2="13" y2="359.5" stroke="#4F4F4F" stroke-width="3"/>
<line x1="13" y1="326.5" x2="7" y2="326.5" stroke="#4F4F4F" stroke-width="3"/>
<line x1="13" y1="337.5" x2="7" y2="337.5" stroke="#4F4F4F" stroke-width="3"/>
<line x1="13" y1="349.5" x2="7" y2="349.5" stroke="#4F4F4F" stroke-width="3"/>
<line y1="404.5" x2="13" y2="404.5" stroke="#4F4F4F" stroke-width="3"/>
<line x1="13" y1="371.5" x2="7" y2="371.5" stroke="#4F4F4F" stroke-width="3"/>
<line x1="13" y1="382.5" x2="7" y2="382.5" stroke="#4F4F4F" stroke-width="3"/>
<line x1="13" y1="394.5" x2="7" y2="394.5" stroke="#4F4F4F" stroke-width="3"/>
<line y1="404.5" x2="13" y2="404.5" stroke="#4F4F4F" stroke-width="3"/>
<line x1="13" y1="371.5" x2="7" y2="371.5" stroke="#4F4F4F" stroke-width="3"/>
<line x1="13" y1="382.5" x2="7" y2="382.5" stroke="#4F4F4F" stroke-width="3"/>
<line x1="13" y1="394.5" x2="7" y2="394.5" stroke="#4F4F4F" stroke-width="3"/>
<line y1="449.5" x2="13" y2="449.5" stroke="#4F4F4F" stroke-width="3"/>
<line x1="13" y1="416.5" x2="7" y2="416.5" stroke="#4F4F4F" stroke-width="3"/>
<line x1="13" y1="427.5" x2="7" y2="427.5" stroke="#4F4F4F" stroke-width="3"/>
<line x1="13" y1="439.5" x2="7" y2="439.5" stroke="#4F4F4F" stroke-width="3"/>
<line y1="449.5" x2="13" y2="449.5" stroke="#4F4F4F" stroke-width="3"/>
<line x1="13" y1="416.5" x2="7" y2="416.5" stroke="#4F4F4F" stroke-width="3"/>
<line x1="13" y1="427.5" x2="7" y2="427.5" stroke="#4F4F4F" stroke-width="3"/>
<line x1="13" y1="439.5" x2="7" y2="439.5" stroke="#4F4F4F" stroke-width="3"/>
<line y1="494.5" x2="13" y2="494.5" stroke="#4F4F4F" stroke-width="3"/>
<line x1="13" y1="461.5" x2="7" y2="461.5" stroke="#4F4F4F" stroke-width="3"/>
<line x1="13" y1="472.5" x2="7" y2="472.5" stroke="#4F4F4F" stroke-width="3"/>
<line x1="13" y1="484.5" x2="7" y2="484.5" stroke="#4F4F4F" stroke-width="3"/>
<line y1="494.5" x2="13" y2="494.5" stroke="#4F4F4F" stroke-width="3"/>
<line x1="13" y1="461.5" x2="7" y2="461.5" stroke="#4F4F4F" stroke-width="3"/>
<line x1="13" y1="472.5" x2="7" y2="472.5" stroke="#4F4F4F" stroke-width="3"/>
<line x1="13" y1="484.5" x2="7" y2="484.5" stroke="#4F4F4F" stroke-width="3"/>
</svg>

