<svg width="67" height="68" viewBox="0 0 67 68" fill="none" xmlns="http://www.w3.org/2000/svg">
<path d="M6.5 28.915V66H60.5V28.915M2 17.3259V28.915H65V17.3259H2ZM33.5 17.3259C33.5 17.3259 29 -3.53437 15.5 3.41907C2 10.3725 33.5 17.3259 33.5 17.3259C33.5 17.3259 38 -3.53437 51.5 3.41907C65 10.3725 33.5 17.3259 33.5 17.3259ZM33.5 17.3259V66V17.3259Z" fill="#077DF1"/>
<path d="M6.5 28.915V66H60.5V28.915M33.5 17.3259C33.5 17.3259 29 -3.53437 15.5 3.41907C2 10.3725 33.5 17.3259 33.5 17.3259ZM33.5 17.3259C33.5 17.3259 38 -3.53437 51.5 3.41907C65 10.3725 33.5 17.3259 33.5 17.3259ZM33.5 17.3259V66M2 17.3259V28.915H65V17.3259H2Z" stroke="#FFD166" stroke-width="4" stroke-linecap="round" stroke-linejoin="round"/>
</svg>
