<svg width="26" height="26" viewBox="0 0 26 26" fill="none" xmlns="http://www.w3.org/2000/svg">
<path d="M25 5.776C20.56 5.38 16.0933 5.176 11.64 5.176C9 5.176 6.36 5.296 3.72 5.536L1 5.776M8.33333 4.564L8.62667 2.992C8.84 1.852 9 1 11.2533 1H14.7467C17 1 17.1733 1.9 17.3733 3.004L17.6667 4.564M22.1333 9.568L21.2667 21.652C21.12 23.536 21 25 17.28 25H8.72C5 25 4.88 23.536 4.73333 21.652L3.86667 9.568M10.7733 18.4H15.2133M9.66667 13.6H16.3333" stroke="#707070" stroke-linecap="round" stroke-linejoin="round"/>
</svg>
