<svg width="116" height="274" viewBox="0 0 116 274" fill="none" xmlns="http://www.w3.org/2000/svg">
<path d="M39.8796 266.049H31.8299L28 235L39.8809 235.001L39.8796 266.049Z" fill="#FFB8B8"/>
<path d="M47.0022 263.535H31.4781V273.31H56.7767C56.7767 272.026 56.5239 270.755 56.0327 269.569C55.5415 268.383 54.8215 267.306 53.9138 266.398C53.0062 265.49 51.9287 264.77 50.7428 264.279C49.5569 263.788 48.2858 263.535 47.0022 263.535Z" fill="#2F2E41"/>
<path d="M79.8796 266.049H71.8299L68 235L79.8809 235.001L79.8796 266.049Z" fill="#FFB8B8"/>
<path d="M85.9507 263.535H70.4265V273.31H95.7252C95.7252 272.026 95.4723 270.755 94.9811 269.569C94.4899 268.383 93.7699 267.306 92.8623 266.398C91.9546 265.49 90.8771 264.77 89.6912 264.279C88.5053 263.788 87.2343 263.535 85.9507 263.535Z" fill="#2F2E41"/>
<path d="M1.29828 17.1931C0.680675 17.7877 0.270093 18.4636 0.0954582 19.173C-0.0791769 19.8825 -0.0136427 20.6084 0.287487 21.2995C0.588617 21.9906 1.11799 22.6302 1.83833 23.1732C2.55867 23.7162 3.45247 24.1494 4.45673 24.4422L33.64 77L48 71.8793L14.679 21.6532C15.3201 20.5182 15.3018 19.269 14.6275 18.1422C13.9532 17.0155 12.6698 16.0895 11.0204 15.5397C9.37106 14.9899 7.47038 14.8546 5.67853 15.1593C3.88667 15.4641 2.32816 16.1877 1.29828 17.1931Z" fill="#FFB8B8"/>
<path d="M54.8961 54.6849C63.8025 54.6849 71.0225 47.4648 71.0225 38.5585C71.0225 29.6522 63.8025 22.4321 54.8961 22.4321C45.9898 22.4321 38.7698 29.6522 38.7698 38.5585C38.7698 47.4648 45.9898 54.6849 54.8961 54.6849Z" fill="#FFB8B8"/>
<path d="M79.2381 150.503H30.6202L30.6787 150.125C30.7661 149.56 39.3435 93.3707 33.0173 74.9884C32.3825 73.1819 32.4383 71.2045 33.174 69.4367C33.9097 67.6689 35.2733 66.2358 37.0023 65.4131C46.0446 61.1549 63.4021 55.9115 78.0521 68.6364C80.2079 70.5397 81.8913 72.9184 82.9693 75.5845C84.0472 78.2507 84.4902 81.131 84.263 83.9978L79.2381 150.503Z" fill="#087DF1"/>
<path d="M39.3371 55.7417L23.4793 61.37L33.7612 77.2373C34.4736 78.8177 35.8278 80.0556 37.5267 80.6794C39.2256 81.3032 41.1305 81.262 42.8236 80.5647C44.5167 79.8675 45.8597 78.5712 46.5581 76.9602C47.2564 75.3492 47.2531 73.555 46.5488 71.9712L39.3371 55.7417Z" fill="#087DF1"/>
<path d="M31.5493 148.235C25.0764 178.351 25.9301 216.231 29.8997 257.413L40.3352 255.628L55.8078 176.06L69.9106 255.609L81.6876 254.421C83.2619 210.952 85.0196 173.616 78.2673 149.415L31.5493 148.235Z" fill="#2F2E41"/>
<path d="M43.2383 51.0213C46.2468 54.226 51.8338 52.5057 52.2258 48.1277C52.2566 47.7878 52.2544 47.4457 52.2192 47.1062C52.0168 45.167 50.8965 43.4063 51.1648 41.3588C51.2256 40.8492 51.4154 40.3635 51.7164 39.9478C54.1138 36.7376 59.7414 41.3837 62.0039 38.4776C63.3913 36.6956 61.7604 33.8899 62.825 31.8982C64.2302 29.2695 68.3921 30.5663 71.0021 29.1267C73.906 27.525 73.7323 23.0696 71.8207 20.3596C69.4895 17.0546 65.4022 15.291 61.3657 15.0369C57.3293 14.7827 53.3206 15.8738 49.5523 17.3424C45.2706 19.011 41.0248 21.3171 38.3899 25.0819C35.1856 29.6604 34.8773 35.8157 36.4798 41.1694C37.4547 44.4261 40.7816 48.4044 43.2383 51.0213Z" fill="#2F2E41"/>
<path d="M107.7 4.44326C108.171 5.1746 108.478 6.02131 108.599 6.92371C108.72 7.8261 108.653 8.76224 108.401 9.66621C108.149 10.5702 107.72 11.42 107.143 12.1557C106.566 12.8915 105.855 13.4953 105.061 13.9247L81 83L69.8509 77.1793L97.1052 10.8813C96.6277 9.45684 96.6699 7.85067 97.2239 6.36723C97.7779 4.88378 98.8052 3.62612 100.111 2.83254C101.417 2.03896 102.911 1.76463 104.309 2.06149C105.708 2.35835 106.914 3.2058 107.7 4.44326Z" fill="#FFB8B8"/>
<path d="M91.0462 64.3402L83.2483 80.3331C82.3278 83.6486 78.4131 85.0577 74.5308 83.451C70.6484 81.842 68.2462 77.8198 69.1755 74.4812L73.7609 58.0072L91.0462 64.3402Z" fill="#087DF1"/>
</svg>
