<svg width="337" height="231" viewBox="0 0 337 231" fill="none" xmlns="http://www.w3.org/2000/svg">
<mask id="mask0_1_2" style="mask-type:luminance" maskUnits="userSpaceOnUse" x="251" y="28" width="86" height="86">
<path d="M251 28H337V114H251V28Z" fill="white"/>
</mask>
<g mask="url(#mask0_1_2)">
<path d="M279.575 47.2096C279.323 47.4711 279.118 47.7734 278.968 48.1036L278.95 48.0855L253.567 105.264L253.591 105.289C253.121 106.201 253.908 108.057 255.522 109.673C257.133 111.284 258.989 112.072 259.901 111.601L259.924 111.624L317.107 86.2423L317.089 86.222C317.424 86.0635 317.727 85.8712 317.983 85.6154C321.518 82.0804 315.785 70.6175 305.18 60.0123C294.575 49.4049 283.11 43.6746 279.575 47.2096Z" fill="#DD2E44"/>
<path d="M282.684 57.4212L254.205 103.83L253.567 105.267L253.591 105.289C253.121 106.204 253.908 108.057 255.522 109.673C256.007 110.153 256.545 110.576 257.126 110.934L291.737 68.737L282.684 57.4212Z" fill="#EA596E"/>
<path d="M305.343 59.8337C315.912 70.4072 321.78 81.6777 318.444 85.0114C315.111 88.345 303.84 82.4789 293.264 71.9099C282.693 61.3365 276.827 50.0637 280.161 46.7278C283.497 43.3942 294.767 49.2625 305.343 59.8337Z" fill="#A0041E"/>
<path d="M295.335 61.0649C295.105 61.2521 294.839 61.3915 294.554 61.4751C294.268 61.5586 293.969 61.5846 293.674 61.5515C291.71 61.3387 290.058 60.6553 288.901 59.5757C287.677 58.4328 287.073 56.9007 287.238 55.3617C287.527 52.6641 290.234 50.1882 294.849 50.6883C296.643 50.8807 297.445 50.3036 297.469 50.0275C297.501 49.7536 296.843 49.0181 295.05 48.8235C293.083 48.6107 291.434 47.9273 290.275 46.8477C289.051 45.7048 288.444 44.1704 288.611 42.6337C288.906 39.9361 291.61 37.4602 296.22 37.9603C297.528 38.1006 298.216 37.8291 298.508 37.6548C298.744 37.5122 298.836 37.3764 298.845 37.2995C298.87 37.0256 298.221 36.2901 296.422 36.0955C295.834 36.0199 295.3 35.717 294.933 35.2519C294.566 34.7867 294.397 34.1964 294.46 33.6075C294.524 33.0186 294.816 32.4782 295.274 32.1021C295.731 31.7261 296.318 31.5445 296.908 31.5963C301.518 32.092 303.637 35.0861 303.345 37.7861C303.053 40.4837 300.348 42.9574 295.734 42.4595C294.426 42.3169 293.74 42.5885 293.448 42.7627C293.215 42.9053 293.12 43.0434 293.111 43.1181C293.081 43.3942 293.735 44.1297 295.534 44.3243C300.145 44.82 302.263 47.8141 301.971 50.5141C301.679 53.2117 298.972 55.6876 294.362 55.1875C293.054 55.0472 292.366 55.3165 292.072 55.4907C291.839 55.6333 291.748 55.7714 291.739 55.8483C291.71 56.1222 292.364 56.8577 294.161 57.0523C294.607 57.0987 295.029 57.2767 295.373 57.5638C295.718 57.8509 295.969 58.234 296.095 58.6643C296.221 59.0947 296.216 59.5528 296.081 59.9803C295.945 60.4078 295.686 60.7854 295.335 61.0649Z" fill="#AA8DD8"/>
<path d="M322.654 81.992C327.119 80.7314 330.199 82.723 330.932 85.337C331.666 87.9486 330.077 91.2551 325.616 92.5089C323.874 92.9977 323.351 93.8306 323.421 94.0976C323.498 94.3647 324.383 94.8037 326.121 94.3104C330.584 93.0566 333.664 95.0482 334.397 97.6599C335.137 100.274 333.544 103.576 329.079 104.834C327.339 105.323 326.813 106.158 326.89 106.423C326.965 106.688 327.848 107.124 329.588 106.638C329.877 106.549 330.181 106.518 330.481 106.548C330.782 106.578 331.074 106.668 331.339 106.813C331.604 106.957 331.838 107.153 332.027 107.39C332.215 107.626 332.354 107.898 332.436 108.189C332.517 108.48 332.54 108.784 332.502 109.084C332.464 109.384 332.366 109.673 332.215 109.934C332.063 110.196 331.861 110.424 331.62 110.607C331.379 110.789 331.103 110.92 330.81 110.994C326.352 112.25 323.267 110.263 322.529 107.647C321.796 105.035 323.387 101.734 327.855 100.475C329.595 99.9841 330.12 99.1535 330.043 98.8865C329.968 98.6217 329.088 98.1804 327.348 98.6692C322.882 99.9275 319.802 97.9405 319.067 95.3243C318.331 92.7103 319.922 89.4084 324.39 88.1501C326.125 87.6635 326.651 86.8261 326.576 86.5636C326.499 86.2943 325.621 85.8552 323.878 86.3463C323.589 86.4395 323.283 86.4734 322.98 86.4458C322.677 86.4183 322.383 86.3299 322.114 86.186C321.846 86.0421 321.61 85.8455 321.42 85.6082C321.229 85.3708 321.089 85.0975 321.006 84.8046C320.924 84.5116 320.901 84.2051 320.94 83.9033C320.979 83.6015 321.078 83.3106 321.232 83.0481C321.386 82.7855 321.591 82.5566 321.835 82.3752C322.08 82.1937 322.358 82.0634 322.654 81.992Z" fill="#77B255"/>
<path d="M305.318 75.8884C304.849 75.8878 304.393 75.7418 304.01 75.4706C303.628 75.1994 303.339 74.8164 303.184 74.3742C303.029 73.9321 303.014 73.4526 303.143 73.0019C303.271 72.5512 303.536 72.1515 303.901 71.8577C304.395 71.4617 316.163 62.219 332.795 64.5975C333.089 64.6394 333.372 64.7389 333.628 64.8902C333.884 65.0416 334.107 65.2418 334.285 65.4796C334.463 65.7173 334.593 65.9878 334.667 66.2757C334.74 66.5635 334.756 66.8631 334.714 67.1572C334.674 67.452 334.575 67.7359 334.424 67.9924C334.272 68.2488 334.072 68.4727 333.834 68.6512C333.595 68.8297 333.324 68.9591 333.036 69.0321C332.747 69.1051 332.447 69.1201 332.152 69.0763C317.458 66.9897 306.834 75.3091 306.73 75.3928C306.33 75.7143 305.832 75.8892 305.318 75.8884Z" fill="#AA8DD8"/>
<path d="M266.285 66.4739C265.932 66.474 265.584 66.3916 265.269 66.2331C264.953 66.0747 264.679 65.8446 264.469 65.5614C264.258 65.2781 264.117 64.9495 264.055 64.6018C263.994 64.2541 264.016 63.897 264.117 63.5589C266.681 55.02 269.006 41.3936 266.15 37.8427C265.828 37.4398 265.348 37.0438 264.244 37.1275C262.119 37.2882 262.323 41.7692 262.325 41.8145C262.354 42.1143 262.322 42.4169 262.233 42.7044C262.143 42.992 261.997 43.2587 261.803 43.489C261.608 43.7193 261.37 43.9086 261.102 44.0457C260.834 44.1827 260.541 44.2649 260.241 44.2874C259.94 44.3098 259.639 44.2721 259.353 44.1764C259.067 44.0807 258.804 43.9289 258.578 43.73C258.351 43.5311 258.167 43.289 258.036 43.018C257.904 42.747 257.828 42.4525 257.812 42.1517C257.577 39.0308 258.55 33.0199 263.902 32.6148C266.292 32.4337 268.277 33.2643 269.68 35.0069C275.046 41.6855 269.599 61.0491 268.451 64.8625C268.311 65.3281 268.025 65.7362 267.635 66.0265C267.245 66.3167 266.772 66.4736 266.285 66.4739Z" fill="#77B255"/>
<path d="M314.368 51.7632C314.368 52.2092 314.28 52.6507 314.109 53.0627C313.939 53.4746 313.688 53.8489 313.373 54.1641C313.058 54.4794 312.683 54.7294 312.271 54.8999C311.859 55.0704 311.417 55.1581 310.971 55.158C310.525 55.1578 310.084 55.0698 309.672 54.899C309.26 54.7282 308.886 54.478 308.57 54.1625C308.255 53.8471 308.005 53.4727 307.835 53.0606C307.664 52.6485 307.577 52.2069 307.577 51.761C307.577 50.8603 307.935 49.9967 308.572 49.36C309.209 48.7234 310.073 48.3659 310.974 48.3662C311.874 48.3665 312.738 48.7246 313.375 49.3616C314.011 49.9987 314.369 50.8626 314.368 51.7632Z" fill="#5C913B"/>
<path d="M262.316 71.0001C262.316 71.5946 262.198 72.1833 261.971 72.7325C261.743 73.2818 261.409 73.7808 260.989 74.2011C260.568 74.6214 260.069 74.9548 259.52 75.1822C258.971 75.4096 258.382 75.5265 257.787 75.5264C257.193 75.5262 256.604 75.409 256.055 75.1813C255.506 74.9536 255.006 74.62 254.586 74.1995C254.166 73.779 253.833 73.2798 253.605 72.7305C253.378 72.1811 253.261 71.5923 253.261 70.9978C253.261 69.797 253.739 68.6456 254.588 67.7967C255.437 66.9479 256.589 66.4712 257.79 66.4715C258.99 66.4718 260.142 66.9491 260.991 67.7983C261.839 68.6476 262.316 69.7993 262.316 71.0001Z" fill="#9266CC"/>
<path d="M330.211 74.3948C330.21 74.8408 330.122 75.2823 329.952 75.6943C329.781 76.1062 329.531 76.4805 329.215 76.7957C328.9 77.111 328.525 77.361 328.113 77.5315C327.701 77.702 327.26 77.7897 326.814 77.7896C326.368 77.7894 325.926 77.7014 325.514 77.5306C325.102 77.3598 324.728 77.1096 324.413 76.7941C324.097 76.4787 323.847 76.1042 323.677 75.6922C323.506 75.2801 323.419 74.8385 323.419 74.3926C323.419 73.4919 323.777 72.6283 324.414 71.9916C325.051 71.355 325.915 70.9975 326.816 70.9978C327.716 70.9981 328.58 71.3562 329.217 71.9932C329.853 72.6303 330.211 73.4942 330.211 74.3948Z" fill="#5C913B"/>
<path d="M309.842 101.553C309.842 101.999 309.754 102.44 309.583 102.852C309.412 103.264 309.162 103.638 308.847 103.954C308.531 104.269 308.157 104.519 307.745 104.689C307.333 104.86 306.891 104.948 306.445 104.948C305.999 104.947 305.558 104.859 305.146 104.689C304.734 104.518 304.359 104.268 304.044 103.952C303.729 103.637 303.479 103.262 303.308 102.85C303.138 102.438 303.05 101.996 303.05 101.551C303.051 100.65 303.409 99.7862 304.046 99.1496C304.683 98.513 305.547 98.1555 306.447 98.1558C307.348 98.1561 308.212 98.5141 308.848 99.1512C309.485 99.7883 309.842 100.652 309.842 101.553Z" fill="#5C913B"/>
<path d="M321.158 39.316C321.158 39.9105 321.04 40.4992 320.813 41.0485C320.585 41.5977 320.252 42.0967 319.831 42.517C319.41 42.9373 318.911 43.2707 318.362 43.4981C317.813 43.7255 317.224 43.8424 316.629 43.8423C316.035 43.8421 315.446 43.7249 314.897 43.4972C314.348 43.2696 313.849 42.9359 313.428 42.5154C313.008 42.0949 312.675 41.5957 312.447 41.0464C312.22 40.497 312.103 39.9083 312.103 39.3137C312.103 38.113 312.581 36.9615 313.43 36.1126C314.279 35.2638 315.431 34.7871 316.632 34.7874C317.832 34.7877 318.984 35.265 319.833 36.1142C320.681 36.9635 321.158 38.1152 321.158 39.316Z" fill="#FFCC4D"/>
<path d="M330.211 49.5003C330.21 49.9462 330.122 50.3878 329.952 50.7997C329.781 51.2117 329.531 51.586 329.215 51.9012C328.9 52.2164 328.525 52.4664 328.113 52.637C327.701 52.8075 327.26 52.8952 326.814 52.895C326.368 52.8949 325.926 52.8069 325.514 52.6361C325.102 52.4653 324.728 52.215 324.413 51.8996C324.097 51.5842 323.847 51.2097 323.677 50.7976C323.506 50.3856 323.419 49.944 323.419 49.498C323.419 48.5974 323.777 47.7337 324.414 47.0971C325.051 46.4605 325.915 46.103 326.816 46.1033C327.716 46.1036 328.58 46.4616 329.217 47.0987C329.853 47.7358 330.211 48.5996 330.211 49.5003Z" fill="#FFCC4D"/>
<path d="M323.421 58.5528C323.421 58.9987 323.333 59.4403 323.162 59.8522C322.991 60.2642 322.741 60.6385 322.426 60.9537C322.11 61.2689 321.736 61.5189 321.324 61.6894C320.912 61.86 320.47 61.9477 320.024 61.9475C319.578 61.9474 319.137 61.8594 318.725 61.6886C318.313 61.5178 317.939 61.2675 317.623 60.9521C317.308 60.6366 317.058 60.2622 316.888 59.8501C316.717 59.4381 316.629 58.9965 316.629 58.5505C316.63 57.6499 316.988 56.7862 317.625 56.1496C318.262 55.513 319.126 55.1555 320.026 55.1558C320.927 55.1561 321.791 55.5141 322.427 56.1512C323.064 56.7883 323.421 57.6521 323.421 58.5528Z" fill="#FFCC4D"/>
<path d="M273.632 83.4475C273.631 83.8935 273.543 84.3351 273.373 84.747C273.202 85.159 272.952 85.5332 272.636 85.8485C272.321 86.1637 271.946 86.4137 271.534 86.5842C271.122 86.7547 270.681 86.8424 270.235 86.8423C269.789 86.8421 269.347 86.7542 268.935 86.5834C268.523 86.4126 268.149 86.1623 267.834 85.8469C267.518 85.5314 267.268 85.157 267.098 84.7449C266.927 84.3329 266.84 83.8912 266.84 83.4453C266.84 82.5446 267.198 81.681 267.835 81.0444C268.472 80.4077 269.336 80.0502 270.237 80.0505C271.137 80.0508 272.001 80.4089 272.638 81.046C273.274 81.683 273.632 82.5469 273.632 83.4475Z" fill="#FFCC4D"/>
</g>
<mask id="mask1_1_2" style="mask-type:luminance" maskUnits="userSpaceOnUse" x="0" y="136" width="81" height="81">
<path d="M0 217V136H81V217H0Z" fill="white"/>
</mask>
<g mask="url(#mask1_1_2)">
<path d="M18.0927 190.086C18.3389 190.323 18.6237 190.516 18.9347 190.658L18.9176 190.675L72.772 214.583L72.7954 214.559C73.6545 215.002 75.4023 214.261 76.9243 212.741C78.442 211.223 79.1838 209.475 78.7404 208.616L78.7617 208.595L54.8561 154.736L54.8369 154.753C54.6877 154.438 54.5065 154.152 54.2656 153.911C50.9361 150.582 40.1396 155.981 30.1511 165.97C20.1603 175.958 14.7632 186.757 18.0927 190.086Z" fill="#DD2E44"/>
<path d="M27.7105 187.158L71.4207 213.981L72.7742 214.583L72.7955 214.559C73.6567 215.002 75.4025 214.261 76.9244 212.741C77.3763 212.284 77.7746 211.777 78.1117 211.23L38.3684 178.631L27.7105 187.158Z" fill="#EA596E"/>
<path d="M29.9826 165.816C39.9414 155.862 50.5566 150.335 53.6964 153.477C56.8363 156.616 51.3112 167.232 41.3567 177.193C31.398 187.149 20.7806 192.674 17.6387 189.534C14.4988 186.393 20.026 175.777 29.9826 165.816Z" fill="#A0041E"/>
<path d="M31.1423 175.242C31.3187 175.46 31.45 175.71 31.5287 175.979C31.6074 176.247 31.6318 176.529 31.6006 176.807C31.4003 178.657 30.7565 180.213 29.7398 181.302C28.6633 182.456 27.2202 183.025 25.7708 182.869C23.2299 182.596 20.898 180.047 21.3691 175.701C21.5502 174.01 21.0067 173.256 20.7466 173.232C20.4887 173.202 19.7959 173.823 19.6126 175.511C19.4123 177.363 18.7685 178.917 17.7518 180.008C16.6753 181.162 15.2301 181.733 13.7828 181.575C11.2419 181.298 8.90997 178.751 9.38105 174.409C9.51321 173.177 9.25742 172.529 9.09329 172.254C8.959 172.032 8.8311 171.945 8.75863 171.936C8.50071 171.913 7.80795 172.525 7.62463 174.219C7.55346 174.772 7.2682 175.276 6.83009 175.621C6.39197 175.967 5.83592 176.126 5.28128 176.066C4.72663 176.006 4.21761 175.731 3.86347 175.3C3.50932 174.869 3.33828 174.317 3.38705 173.761C3.85387 169.419 6.67394 167.424 9.21692 167.699C11.7578 167.974 14.0876 170.521 13.6186 174.867C13.4843 176.099 13.7401 176.745 13.9043 177.02C14.0386 177.24 14.1686 177.329 14.2389 177.338C14.499 177.365 15.1917 176.749 15.3751 175.055C15.8419 170.713 18.6619 168.718 21.2049 168.992C23.7458 169.267 26.0777 171.817 25.6066 176.159C25.4745 177.391 25.7281 178.039 25.8923 178.316C26.0265 178.536 26.1566 178.621 26.2291 178.629C26.487 178.657 27.1797 178.041 27.3631 176.349C27.4067 175.928 27.5744 175.531 27.8448 175.206C28.1152 174.882 28.476 174.645 28.8813 174.527C29.2867 174.408 29.7181 174.413 30.1208 174.54C30.5234 174.668 30.8791 174.912 31.1423 175.242Z" fill="#AA8DD8"/>
<path d="M50.853 149.512C49.6657 145.306 51.5415 142.405 54.0035 141.715C56.4633 141.024 59.5776 142.52 60.7585 146.722C61.2189 148.363 62.0033 148.855 62.2548 148.789C62.5063 148.717 62.9199 147.883 62.4552 146.246C61.2743 142.043 63.1501 139.142 65.6099 138.451C68.0719 137.754 71.1819 139.255 72.367 143.46C72.8275 145.1 73.614 145.594 73.8634 145.522C74.1128 145.451 74.5242 144.62 74.0659 142.981C73.9818 142.709 73.9531 142.423 73.9813 142.14C74.0096 141.856 74.0943 141.582 74.2305 141.332C74.3666 141.082 74.5514 140.861 74.7741 140.684C74.9967 140.507 75.2526 140.376 75.5267 140.299C75.8007 140.222 76.0874 140.201 76.3698 140.236C76.6522 140.272 76.9246 140.364 77.1709 140.507C77.4172 140.649 77.6324 140.84 77.8039 141.067C77.9753 141.294 78.0996 141.554 78.1692 141.83C79.3522 146.029 77.4807 148.934 75.0166 149.629C72.5567 150.32 69.4468 148.821 68.2616 144.614C67.7991 142.974 67.0168 142.48 66.7652 142.552C66.5159 142.623 66.1002 143.452 66.5606 145.091C67.7458 149.297 65.8742 152.198 63.4101 152.89C60.9482 153.583 57.8382 152.085 56.653 147.877C56.1947 146.242 55.4061 145.748 55.1588 145.818C54.9051 145.89 54.4916 146.717 54.9542 148.359C55.042 148.632 55.0738 148.919 55.0479 149.205C55.0219 149.49 54.9387 149.767 54.8031 150.02C54.6676 150.272 54.4825 150.495 54.2589 150.674C54.0354 150.854 53.778 150.986 53.5021 151.064C53.2262 151.141 52.9374 151.162 52.6532 151.126C52.3689 151.089 52.0949 150.996 51.8477 150.851C51.6004 150.706 51.3848 150.513 51.2139 150.283C51.043 150.053 50.9203 149.791 50.853 149.512Z" fill="#77B255"/>
<path d="M45.1041 165.84C45.1035 166.281 44.966 166.712 44.7106 167.072C44.4552 167.432 44.0944 167.704 43.678 167.85C43.2615 167.996 42.8099 168.01 42.3854 167.889C41.961 167.768 41.5844 167.518 41.3078 167.174C40.9348 166.71 32.2294 155.625 34.4697 139.96C34.5091 139.683 34.6028 139.417 34.7454 139.176C34.8879 138.935 35.0765 138.725 35.3004 138.557C35.5243 138.389 35.7791 138.267 36.0502 138.198C36.3214 138.128 36.6035 138.113 36.8805 138.153C37.1582 138.191 37.4256 138.284 37.6671 138.427C37.9087 138.569 38.1196 138.758 38.2877 138.982C38.4558 139.207 38.5777 139.462 38.6464 139.734C38.7152 140.006 38.7293 140.288 38.6881 140.566C36.7228 154.406 44.5584 164.412 44.6373 164.51C44.9402 164.887 45.1049 165.356 45.1041 165.84Z" fill="#AA8DD8"/>
<path d="M36.2368 202.603C36.2369 202.936 36.1593 203.263 36.0101 203.561C35.8608 203.858 35.6442 204.116 35.3774 204.314C35.1106 204.513 34.8011 204.646 34.4736 204.703C34.1461 204.761 33.8097 204.741 33.4913 204.645C25.4489 202.23 12.6147 200.041 9.27021 202.731C8.89079 203.034 8.51776 203.486 8.59663 204.526C8.74797 206.527 12.9685 206.335 13.0111 206.333C13.2935 206.306 13.5785 206.336 13.8493 206.42C14.1201 206.505 14.3714 206.642 14.5883 206.825C14.8052 207.008 14.9834 207.232 15.1126 207.485C15.2417 207.738 15.3191 208.013 15.3402 208.296C15.3614 208.579 15.3258 208.864 15.2357 209.133C15.1455 209.402 15.0026 209.65 14.8153 209.863C14.6279 210.076 14.3999 210.249 14.1447 210.373C13.8894 210.497 13.612 210.569 13.3287 210.584C10.3893 210.805 4.72782 209.889 4.34626 204.848C4.17574 202.597 4.95803 200.727 6.59934 199.406C12.8896 194.352 31.1274 199.482 34.7191 200.563C35.1577 200.695 35.5421 200.965 35.8154 201.332C36.0888 201.699 36.2365 202.145 36.2368 202.603Z" fill="#77B255"/>
<path d="M22.3815 157.316C22.8016 157.316 23.2175 157.399 23.6055 157.56C23.9935 157.721 24.346 157.956 24.6429 158.253C24.9398 158.55 25.1753 158.903 25.3359 159.291C25.4965 159.679 25.5791 160.095 25.5789 160.515C25.5788 160.935 25.4959 161.351 25.335 161.739C25.1742 162.127 24.9385 162.48 24.6414 162.777C24.3443 163.074 23.9916 163.309 23.6035 163.47C23.2154 163.63 22.7994 163.713 22.3794 163.713C21.5311 163.712 20.7177 163.375 20.1181 162.775C19.5185 162.175 19.1818 161.361 19.1821 160.513C19.1823 159.665 19.5196 158.851 20.1196 158.252C20.7196 157.652 21.5333 157.315 22.3815 157.316Z" fill="#5C913B"/>
<path d="M40.5 206.342C41.06 206.342 41.6145 206.452 42.1318 206.667C42.6491 206.881 43.1191 207.196 43.515 207.592C43.9108 207.988 44.2248 208.458 44.439 208.975C44.6532 209.493 44.7633 210.047 44.7632 210.607C44.763 211.167 44.6526 211.722 44.4382 212.239C44.2238 212.756 43.9095 213.226 43.5135 213.622C43.1174 214.018 42.6472 214.332 42.1298 214.546C41.6124 214.76 41.0579 214.871 40.4979 214.87C39.367 214.87 38.2824 214.421 37.4829 213.621C36.6834 212.821 36.2345 211.736 36.2347 210.605C36.235 209.474 36.6846 208.39 37.4845 207.59C38.2843 206.791 39.3691 206.342 40.5 206.342Z" fill="#9266CC"/>
<path d="M43.6975 142.395C44.1175 142.395 44.5334 142.478 44.9214 142.639C45.3094 142.799 45.6619 143.035 45.9588 143.332C46.2557 143.629 46.4912 143.982 46.6518 144.37C46.8124 144.758 46.895 145.174 46.8948 145.594C46.8947 146.014 46.8118 146.43 46.651 146.818C46.4901 147.206 46.2544 147.559 45.9573 147.855C45.6602 148.152 45.3075 148.388 44.9194 148.548C44.5313 148.709 44.1154 148.792 43.6953 148.792C42.8471 148.791 42.0336 148.454 41.434 147.854C40.8344 147.254 40.4977 146.44 40.498 145.592C40.4983 144.744 40.8355 143.93 41.4355 143.331C42.0355 142.731 42.8492 142.394 43.6975 142.395Z" fill="#5C913B"/>
<path d="M69.2764 161.579C69.6964 161.579 70.1123 161.662 70.5003 161.823C70.8883 161.983 71.2408 162.219 71.5377 162.516C71.8346 162.813 72.0701 163.166 72.2307 163.554C72.3913 163.942 72.4739 164.358 72.4738 164.778C72.4736 165.198 72.3907 165.614 72.2299 166.002C72.069 166.39 71.8333 166.743 71.5362 167.04C71.2391 167.336 70.8864 167.572 70.4983 167.733C70.1102 167.893 69.6943 167.976 69.2743 167.976C68.426 167.975 67.6126 167.638 67.0129 167.038C66.4133 166.438 66.0766 165.624 66.0769 164.776C66.0772 163.928 66.4144 163.114 67.0144 162.515C67.6145 161.915 68.4281 161.578 69.2764 161.579Z" fill="#5C913B"/>
<path d="M10.6579 150.921C11.2179 150.921 11.7724 151.032 12.2897 151.246C12.807 151.46 13.277 151.775 13.6729 152.171C14.0687 152.567 14.3827 153.037 14.5969 153.554C14.8111 154.072 14.9212 154.626 14.9211 155.186C14.9209 155.746 14.8105 156.301 14.5961 156.818C14.3817 157.335 14.0674 157.805 13.6714 158.201C13.2753 158.597 12.8051 158.911 12.2877 159.125C11.7703 159.339 11.2158 159.45 10.6558 159.449C9.52485 159.449 8.44034 159 7.64084 158.2C6.84135 157.4 6.39235 156.315 6.39263 155.184C6.39292 154.053 6.84245 152.969 7.64235 152.169C8.44225 151.37 9.52698 150.921 10.6579 150.921Z" fill="#FFCC4D"/>
<path d="M20.25 142.395C20.67 142.395 21.0859 142.478 21.4739 142.639C21.8619 142.799 22.2144 143.035 22.5113 143.332C22.8082 143.629 23.0437 143.982 23.2043 144.37C23.3649 144.758 23.4475 145.174 23.4474 145.594C23.4472 146.014 23.3644 146.43 23.2035 146.818C23.0426 147.206 22.8069 147.559 22.5098 147.855C22.2127 148.152 21.8601 148.388 21.472 148.548C21.0839 148.709 20.6679 148.792 20.2479 148.792C19.3996 148.791 18.5862 148.454 17.9866 147.854C17.3869 147.254 17.0502 146.44 17.0505 145.592C17.0508 144.744 17.388 143.93 17.9881 143.331C18.5881 142.731 19.4017 142.394 20.25 142.395Z" fill="#FFCC4D"/>
<path d="M28.7764 148.789C29.1964 148.789 29.6123 148.872 30.0003 149.033C30.3883 149.194 30.7408 149.43 31.0377 149.727C31.3346 150.024 31.5701 150.376 31.7307 150.765C31.8913 151.153 31.9739 151.569 31.9738 151.989C31.9736 152.409 31.8907 152.825 31.7299 153.213C31.569 153.601 31.3333 153.953 31.0362 154.25C30.7391 154.547 30.3864 154.782 29.9983 154.943C29.6102 155.104 29.1943 155.186 28.7743 155.186C27.926 155.186 27.1126 154.849 26.5129 154.248C25.9133 153.648 25.5766 152.835 25.5769 151.987C25.5772 151.138 25.9144 150.325 26.5144 149.725C27.1145 149.126 27.9281 148.789 28.7764 148.789Z" fill="#FFCC4D"/>
<path d="M52.2237 195.684C52.6437 195.684 53.0596 195.767 53.4476 195.928C53.8356 196.089 54.1881 196.325 54.485 196.622C54.7819 196.919 55.0174 197.272 55.178 197.66C55.3386 198.048 55.4212 198.464 55.4211 198.884C55.4209 199.304 55.3381 199.72 55.1772 200.108C55.0163 200.496 54.7806 200.848 54.4835 201.145C54.1864 201.442 53.8338 201.677 53.4457 201.838C53.0575 201.999 52.6416 202.081 52.2216 202.081C51.3733 202.081 50.5599 201.744 49.9603 201.144C49.3606 200.543 49.0239 199.73 49.0242 198.882C49.0245 198.033 49.3617 197.22 49.9618 196.62C50.5618 196.021 51.3754 195.684 52.2237 195.684Z" fill="#FFCC4D"/>
</g>
<path d="M93.1025 229V129.148H165.8H238.498V179.074V229H93.1025Z" fill="#077DF1"/>
<path d="M93.1025 129.148V229H238.498V179.074V129.148H165.8H80.9862" stroke="#FFD166" stroke-width="4" stroke-linecap="round" stroke-linejoin="round"/>
<path d="M167.728 129.148V225.526" stroke="#FFD166" stroke-width="4" stroke-linecap="round" stroke-linejoin="round"/>
<path d="M82.5624 133.459L70.264 104.781L148.212 71.3529C148.212 71.3529 62.885 87.5742 88.9124 56.0412C114.94 24.5083 148.212 71.3529 148.212 71.3529C148.212 71.3529 137.211 14.9574 177.996 17.8378C218.782 20.7182 148.212 71.3529 148.212 71.3529L226.161 37.9249L238.459 66.6026L160.511 100.031L82.5624 133.459Z" fill="#077DF1"/>
<path d="M148.212 71.3529C148.212 71.3529 114.94 24.5083 88.9124 56.0412C62.885 87.5742 148.212 71.3529 148.212 71.3529ZM148.212 71.3529C148.212 71.3529 137.211 14.9574 177.996 17.8378C218.782 20.7182 148.212 71.3529 148.212 71.3529ZM70.264 104.781L82.5624 133.459L160.511 100.031L238.459 66.6026L226.161 37.9249L70.264 104.781Z" stroke="#FFD166" stroke-width="4" stroke-linecap="round" stroke-linejoin="round"/>
<path d="M147.903 70.6306L160.058 98.9755" stroke="#FFD166" stroke-width="4" stroke-linecap="round" stroke-linejoin="round"/>
</svg>
