<svg width="89" height="258" viewBox="0 0 89 258" fill="none" xmlns="http://www.w3.org/2000/svg">
<path d="M46.5985 250.513H54.6482L58.4781 219.465L46.5972 219.466L46.5985 250.513Z" fill="#FFB8B8"/>
<path d="M60.3981 248.213H44.874V257.988H70.1726C70.1726 256.704 69.9198 255.433 69.4285 254.247C68.9373 253.061 68.2174 251.984 67.3097 251.076C66.4021 250.168 65.3245 249.448 64.1386 248.957C62.9527 248.466 61.6817 248.213 60.3981 248.213Z" fill="#2F2E41"/>
<path d="M6.54694 250.513H14.5967L18.4265 219.465L6.54561 219.466L6.54694 250.513Z" fill="#FFB8B8"/>
<path d="M20.3465 248.213H4.82241V257.988H30.121C30.121 256.704 29.8682 255.433 29.377 254.247C28.8858 253.061 28.1658 251.984 27.2581 251.076C26.3505 250.168 25.273 249.448 24.0871 248.957C22.9012 248.466 21.6301 248.213 20.3465 248.213Z" fill="#2F2E41"/>
<path d="M86.9793 139.476C87.5584 138.623 87.9434 137.653 88.1071 136.635C88.2709 135.617 88.2094 134.576 87.9271 133.584C87.6447 132.592 87.1484 131.674 86.4729 130.895C85.7975 130.116 84.9595 129.494 84.0178 129.074L56.6542 53.6545L43.1895 61.0026L74.4329 133.076C73.8318 134.705 73.8489 136.498 74.4812 138.114C75.1135 139.731 76.3169 141.06 77.8634 141.849C79.4099 142.638 81.1921 142.832 82.8722 142.395C84.5523 141.958 86.0137 140.919 86.9793 139.476Z" fill="#FFB8B8"/>
<path d="M10.6588 153.648C11.5534 153.135 12.3246 152.432 12.9182 151.589C13.5117 150.746 13.9132 149.783 14.0943 148.768C14.2754 147.753 14.2317 146.71 13.9663 145.714C13.701 144.717 13.2203 143.791 12.5583 143L21.0353 63.2194L5.71213 63.9194L2.18908 142.395C0.93466 143.595 0.164097 145.214 0.0233669 146.944C-0.117365 148.674 0.381542 150.396 1.42554 151.783C2.46954 153.17 3.9861 154.126 5.68784 154.47C7.38959 154.814 9.15828 154.521 10.6588 153.648Z" fill="#FFB8B8"/>
<path d="M35.1039 39.6848C26.1975 39.6848 18.9775 32.4648 18.9775 23.5585C18.9775 14.6521 26.1975 7.43209 35.1039 7.43209C44.0102 7.43209 51.2302 14.6521 51.2302 23.5585C51.2302 32.4648 44.0102 39.6848 35.1039 39.6848Z" fill="#FFB8B8"/>
<path d="M10.7619 135.503H59.3798L59.3213 135.125C59.2339 134.56 50.6565 78.3707 56.9827 59.9883C57.6175 58.1819 57.5617 56.2044 56.826 54.4367C56.0903 52.6689 54.7267 51.2357 52.9977 50.413C43.9554 46.1549 26.5979 40.9115 11.9479 53.6363C9.79211 55.5396 8.10867 57.9184 7.03071 60.5845C5.95275 63.2506 5.50983 66.131 5.73698 68.9977L10.7619 135.503Z" fill="#087DF1"/>
<path d="M50.0421 86.6745L71.9304 82.2338L61.6705 57.9207C61.0565 55.5658 59.5336 53.5506 57.4358 52.3171C55.338 51.0836 52.8365 50.7325 50.4802 51.3408C48.1239 51.9491 46.105 53.4672 44.8664 55.562C43.6279 57.6568 43.2707 60.1574 43.8733 62.5152L50.0421 86.6745Z" fill="#087DF1"/>
<path d="M22.0086 94.9196L23.3244 64.7552C24.3223 59.0848 21.0763 53.7244 16.0841 52.8482C11.0904 51.9753 6.21448 55.908 5.21214 61.6201L0.266077 89.8057L22.0086 94.9196Z" fill="#087DF1"/>
<path d="M12.3794 131.892C4.55651 161.686 3.70308 199.566 5.81357 240.885L16.3189 239.572L35.3598 160.782L45.8652 240.885L57.6837 240.228C61.2144 196.874 64.6522 159.656 58.9968 135.175L12.3794 131.892Z" fill="#2F2E41"/>
<path d="M24.4782 36.0213C27.4867 39.226 33.0738 37.5057 33.4658 33.1277C33.4965 32.7878 33.4943 32.4457 33.4591 32.1062C33.2567 30.167 32.1364 28.4063 32.4048 26.3588C32.4655 25.8492 32.6554 25.3635 32.9563 24.9478C35.3537 21.7376 40.9813 26.3837 43.2438 23.4776C44.6312 21.6956 43.0003 18.8899 44.065 16.8982C45.4701 14.2695 49.632 15.5663 52.242 14.1267C55.1459 12.525 54.9722 8.06957 53.0606 5.35955C50.7294 2.05458 46.6421 0.291038 42.6056 0.0368742C38.5692 -0.217289 34.5606 0.87385 30.7922 2.34243C26.5106 4.01103 22.2647 6.31707 19.6298 10.0819C16.4256 14.6604 16.1172 20.8157 17.7198 26.1694C18.6946 29.4261 22.0215 33.4044 24.4782 36.0213Z" fill="#2F2E41"/>
</svg>
