<svg width="159" height="572" viewBox="0 0 159 572" fill="none" xmlns="http://www.w3.org/2000/svg">
<rect x="69" width="90" height="572" fill="#03045E"/>
<path d="M46.5985 564.513H54.6482L58.4781 533.465L46.5972 533.466L46.5985 564.513Z" fill="#FFB8B8"/>
<path d="M60.3981 562.213H44.874V571.988H70.1726C70.1726 570.704 69.9198 569.433 69.4285 568.247C68.9373 567.061 68.2174 565.984 67.3097 565.076C66.4021 564.168 65.3245 563.448 64.1386 562.957C62.9527 562.466 61.6817 562.213 60.3981 562.213Z" fill="#2F2E41"/>
<path d="M6.54694 564.513H14.5967L18.4265 533.465L6.54561 533.466L6.54694 564.513Z" fill="#FFB8B8"/>
<path d="M20.3465 562.213H4.82241V571.988H30.121C30.121 570.704 29.8682 569.433 29.377 568.247C28.8858 567.061 28.1658 565.984 27.2581 565.076C26.3505 564.168 25.273 563.448 24.0871 562.957C22.9012 562.466 21.6301 562.213 20.3465 562.213Z" fill="#2F2E41"/>
<path d="M86.9793 453.476C87.5584 452.623 87.9434 451.653 88.1071 450.635C88.2709 449.617 88.2094 448.576 87.9271 447.584C87.6447 446.592 87.1484 445.674 86.4729 444.895C85.7975 444.116 84.9595 443.494 84.0178 443.074L56.6542 367.655L43.1895 375.003L74.4329 447.076C73.8318 448.705 73.8489 450.498 74.4812 452.114C75.1135 453.731 76.3169 455.06 77.8634 455.849C79.4099 456.638 81.1921 456.832 82.8722 456.395C84.5523 455.958 86.0137 454.919 86.9793 453.476Z" fill="#FFB8B8"/>
<path d="M10.6588 467.648C11.5534 467.135 12.3246 466.432 12.9182 465.589C13.5117 464.746 13.9132 463.783 14.0943 462.768C14.2754 461.753 14.2317 460.71 13.9663 459.714C13.701 458.717 13.2203 457.791 12.5583 457L21.0353 377.219L5.71213 377.919L2.18908 456.395C0.93466 457.595 0.164097 459.213 0.0233669 460.944C-0.117365 462.674 0.381542 464.396 1.42554 465.783C2.46954 467.17 3.9861 468.126 5.68784 468.47C7.38959 468.814 9.15828 468.521 10.6588 467.648Z" fill="#FFB8B8"/>
<path d="M35.1039 353.685C26.1975 353.685 18.9775 346.465 18.9775 337.558C18.9775 328.652 26.1975 321.432 35.1039 321.432C44.0102 321.432 51.2302 328.652 51.2302 337.558C51.2302 346.465 44.0102 353.685 35.1039 353.685Z" fill="#FFB8B8"/>
<path d="M10.7619 449.503H59.3798L59.3213 449.125C59.2339 448.56 50.6565 392.371 56.9827 373.988C57.6175 372.182 57.5617 370.204 56.826 368.437C56.0903 366.669 54.7267 365.236 52.9977 364.413C43.9554 360.155 26.5979 354.912 11.9479 367.636C9.79211 369.54 8.10867 371.918 7.03071 374.585C5.95275 377.251 5.50983 380.131 5.73698 382.998L10.7619 449.503Z" fill="#087DF1"/>
<path d="M50.0421 400.674L71.9304 396.234L61.6705 371.921C61.0565 369.566 59.5336 367.551 57.4358 366.317C55.338 365.084 52.8365 364.733 50.4802 365.341C48.1239 365.949 46.105 367.467 44.8664 369.562C43.6279 371.657 43.2707 374.157 43.8733 376.515L50.0421 400.674Z" fill="#087DF1"/>
<path d="M22.0086 408.92L23.3244 378.755C24.3223 373.085 21.0763 367.724 16.0841 366.848C11.0904 365.975 6.21448 369.908 5.21214 375.62L0.266077 403.806L22.0086 408.92Z" fill="#087DF1"/>
<path d="M12.3794 445.892C4.55651 475.686 3.70308 513.566 5.81357 554.885L16.3189 553.572L35.3598 474.782L45.8652 554.885L57.6837 554.228C61.2144 510.874 64.6522 473.656 58.9968 449.175L12.3794 445.892Z" fill="#2F2E41"/>
<path d="M24.4782 350.021C27.4867 353.226 33.0738 351.506 33.4658 347.128C33.4965 346.788 33.4943 346.446 33.4591 346.106C33.2567 344.167 32.1364 342.406 32.4048 340.359C32.4655 339.849 32.6554 339.364 32.9563 338.948C35.3537 335.738 40.9813 340.384 43.2438 337.478C44.6312 335.696 43.0003 332.89 44.065 330.898C45.4701 328.27 49.632 329.566 52.242 328.127C55.1459 326.525 54.9722 322.07 53.0606 319.36C50.7294 316.055 46.6421 314.291 42.6056 314.037C38.5692 313.783 34.5606 314.874 30.7922 316.342C26.5106 318.011 22.2647 320.317 19.6298 324.082C16.4256 328.66 16.1172 334.816 17.7198 340.169C18.6946 343.426 22.0215 347.404 24.4782 350.021Z" fill="#2F2E41"/>
<rect x="96" y="16" width="36" height="540" fill="white"/>
<line x1="119" y1="27.5" x2="132" y2="27.5" stroke="#4F4F4F" stroke-width="3"/>
<line x1="119" y1="71.5" x2="132" y2="71.5" stroke="#4F4F4F" stroke-width="3"/>
<line x1="132" y1="38.5" x2="126" y2="38.5" stroke="#4F4F4F" stroke-width="3"/>
<line x1="132" y1="49.5" x2="126" y2="49.5" stroke="#4F4F4F" stroke-width="3"/>
<line x1="132" y1="61.5" x2="126" y2="61.5" stroke="#4F4F4F" stroke-width="3"/>
<line x1="119" y1="115.5" x2="132" y2="115.5" stroke="#4F4F4F" stroke-width="3"/>
<line x1="132" y1="82.5" x2="126" y2="82.5" stroke="#4F4F4F" stroke-width="3"/>
<line x1="132" y1="93.5" x2="126" y2="93.5" stroke="#4F4F4F" stroke-width="3"/>
<line x1="132" y1="105.5" x2="126" y2="105.5" stroke="#4F4F4F" stroke-width="3"/>
<line x1="119" y1="115.5" x2="132" y2="115.5" stroke="#4F4F4F" stroke-width="3"/>
<line x1="132" y1="82.5" x2="126" y2="82.5" stroke="#4F4F4F" stroke-width="3"/>
<line x1="132" y1="93.5" x2="126" y2="93.5" stroke="#4F4F4F" stroke-width="3"/>
<line x1="132" y1="105.5" x2="126" y2="105.5" stroke="#4F4F4F" stroke-width="3"/>
<line x1="119" y1="159.5" x2="132" y2="159.5" stroke="#4F4F4F" stroke-width="3"/>
<line x1="132" y1="126.5" x2="126" y2="126.5" stroke="#4F4F4F" stroke-width="3"/>
<line x1="132" y1="137.5" x2="126" y2="137.5" stroke="#4F4F4F" stroke-width="3"/>
<line x1="132" y1="149.5" x2="126" y2="149.5" stroke="#4F4F4F" stroke-width="3"/>
<line x1="119" y1="159.5" x2="132" y2="159.5" stroke="#4F4F4F" stroke-width="3"/>
<line x1="132" y1="126.5" x2="126" y2="126.5" stroke="#4F4F4F" stroke-width="3"/>
<line x1="132" y1="137.5" x2="126" y2="137.5" stroke="#4F4F4F" stroke-width="3"/>
<line x1="132" y1="149.5" x2="126" y2="149.5" stroke="#4F4F4F" stroke-width="3"/>
<line x1="119" y1="203.5" x2="132" y2="203.5" stroke="#4F4F4F" stroke-width="3"/>
<line x1="132" y1="170.5" x2="126" y2="170.5" stroke="#4F4F4F" stroke-width="3"/>
<line x1="132" y1="181.5" x2="126" y2="181.5" stroke="#4F4F4F" stroke-width="3"/>
<line x1="132" y1="193.5" x2="126" y2="193.5" stroke="#4F4F4F" stroke-width="3"/>
<line x1="119" y1="203.5" x2="132" y2="203.5" stroke="#4F4F4F" stroke-width="3"/>
<line x1="132" y1="170.5" x2="126" y2="170.5" stroke="#4F4F4F" stroke-width="3"/>
<line x1="132" y1="181.5" x2="126" y2="181.5" stroke="#4F4F4F" stroke-width="3"/>
<line x1="132" y1="193.5" x2="126" y2="193.5" stroke="#4F4F4F" stroke-width="3"/>
<line x1="119" y1="247.5" x2="132" y2="247.5" stroke="#4F4F4F" stroke-width="3"/>
<line x1="132" y1="214.5" x2="126" y2="214.5" stroke="#4F4F4F" stroke-width="3"/>
<line x1="132" y1="225.5" x2="126" y2="225.5" stroke="#4F4F4F" stroke-width="3"/>
<line x1="132" y1="237.5" x2="126" y2="237.5" stroke="#4F4F4F" stroke-width="3"/>
<line x1="119" y1="247.5" x2="132" y2="247.5" stroke="#4F4F4F" stroke-width="3"/>
<line x1="132" y1="214.5" x2="126" y2="214.5" stroke="#4F4F4F" stroke-width="3"/>
<line x1="132" y1="225.5" x2="126" y2="225.5" stroke="#4F4F4F" stroke-width="3"/>
<line x1="132" y1="237.5" x2="126" y2="237.5" stroke="#4F4F4F" stroke-width="3"/>
<line x1="119" y1="296.5" x2="132" y2="296.5" stroke="#4F4F4F" stroke-width="3"/>
<line x1="132" y1="263.5" x2="126" y2="263.5" stroke="#4F4F4F" stroke-width="3"/>
<line x1="132" y1="274.5" x2="126" y2="274.5" stroke="#4F4F4F" stroke-width="3"/>
<line x1="132" y1="286.5" x2="126" y2="286.5" stroke="#4F4F4F" stroke-width="3"/>
<line x1="119" y1="296.5" x2="132" y2="296.5" stroke="#4F4F4F" stroke-width="3"/>
<line x1="132" y1="263.5" x2="126" y2="263.5" stroke="#4F4F4F" stroke-width="3"/>
<line x1="132" y1="274.5" x2="126" y2="274.5" stroke="#4F4F4F" stroke-width="3"/>
<line x1="132" y1="286.5" x2="126" y2="286.5" stroke="#4F4F4F" stroke-width="3"/>
<line x1="119" y1="340.5" x2="132" y2="340.5" stroke="#4F4F4F" stroke-width="3"/>
<line x1="132" y1="307.5" x2="126" y2="307.5" stroke="#4F4F4F" stroke-width="3"/>
<line x1="132" y1="318.5" x2="126" y2="318.5" stroke="#4F4F4F" stroke-width="3"/>
<line x1="132" y1="330.5" x2="126" y2="330.5" stroke="#4F4F4F" stroke-width="3"/>
<line x1="119" y1="340.5" x2="132" y2="340.5" stroke="#4F4F4F" stroke-width="3"/>
<line x1="132" y1="307.5" x2="126" y2="307.5" stroke="#4F4F4F" stroke-width="3"/>
<line x1="132" y1="318.5" x2="126" y2="318.5" stroke="#4F4F4F" stroke-width="3"/>
<line x1="132" y1="330.5" x2="126" y2="330.5" stroke="#4F4F4F" stroke-width="3"/>
<line x1="119" y1="385.5" x2="132" y2="385.5" stroke="#4F4F4F" stroke-width="3"/>
<line x1="132" y1="352.5" x2="126" y2="352.5" stroke="#4F4F4F" stroke-width="3"/>
<line x1="132" y1="363.5" x2="126" y2="363.5" stroke="#4F4F4F" stroke-width="3"/>
<line x1="132" y1="375.5" x2="126" y2="375.5" stroke="#4F4F4F" stroke-width="3"/>
<line x1="119" y1="385.5" x2="132" y2="385.5" stroke="#4F4F4F" stroke-width="3"/>
<line x1="132" y1="352.5" x2="126" y2="352.5" stroke="#4F4F4F" stroke-width="3"/>
<line x1="132" y1="363.5" x2="126" y2="363.5" stroke="#4F4F4F" stroke-width="3"/>
<line x1="132" y1="375.5" x2="126" y2="375.5" stroke="#4F4F4F" stroke-width="3"/>
<line x1="119" y1="430.5" x2="132" y2="430.5" stroke="#4F4F4F" stroke-width="3"/>
<line x1="132" y1="397.5" x2="126" y2="397.5" stroke="#4F4F4F" stroke-width="3"/>
<line x1="132" y1="408.5" x2="126" y2="408.5" stroke="#4F4F4F" stroke-width="3"/>
<line x1="132" y1="420.5" x2="126" y2="420.5" stroke="#4F4F4F" stroke-width="3"/>
<line x1="119" y1="430.5" x2="132" y2="430.5" stroke="#4F4F4F" stroke-width="3"/>
<line x1="132" y1="397.5" x2="126" y2="397.5" stroke="#4F4F4F" stroke-width="3"/>
<line x1="132" y1="408.5" x2="126" y2="408.5" stroke="#4F4F4F" stroke-width="3"/>
<line x1="132" y1="420.5" x2="126" y2="420.5" stroke="#4F4F4F" stroke-width="3"/>
<line x1="119" y1="475.5" x2="132" y2="475.5" stroke="#4F4F4F" stroke-width="3"/>
<line x1="132" y1="442.5" x2="126" y2="442.5" stroke="#4F4F4F" stroke-width="3"/>
<line x1="132" y1="453.5" x2="126" y2="453.5" stroke="#4F4F4F" stroke-width="3"/>
<line x1="132" y1="465.5" x2="126" y2="465.5" stroke="#4F4F4F" stroke-width="3"/>
<line x1="119" y1="475.5" x2="132" y2="475.5" stroke="#4F4F4F" stroke-width="3"/>
<line x1="132" y1="442.5" x2="126" y2="442.5" stroke="#4F4F4F" stroke-width="3"/>
<line x1="132" y1="453.5" x2="126" y2="453.5" stroke="#4F4F4F" stroke-width="3"/>
<line x1="132" y1="465.5" x2="126" y2="465.5" stroke="#4F4F4F" stroke-width="3"/>
<line x1="119" y1="520.5" x2="132" y2="520.5" stroke="#4F4F4F" stroke-width="3"/>
<line x1="132" y1="487.5" x2="126" y2="487.5" stroke="#4F4F4F" stroke-width="3"/>
<line x1="132" y1="498.5" x2="126" y2="498.5" stroke="#4F4F4F" stroke-width="3"/>
<line x1="132" y1="510.5" x2="126" y2="510.5" stroke="#4F4F4F" stroke-width="3"/>
<line x1="119" y1="520.5" x2="132" y2="520.5" stroke="#4F4F4F" stroke-width="3"/>
<line x1="132" y1="487.5" x2="126" y2="487.5" stroke="#4F4F4F" stroke-width="3"/>
<line x1="132" y1="498.5" x2="126" y2="498.5" stroke="#4F4F4F" stroke-width="3"/>
<line x1="132" y1="510.5" x2="126" y2="510.5" stroke="#4F4F4F" stroke-width="3"/>
</svg>
