<svg width="159" height="648" viewBox="0 0 159 648" fill="none" xmlns="http://www.w3.org/2000/svg">
<rect x="69" y="76" width="90" height="572" fill="#03045E"/>
<path d="M46.4946 640.525H54.5264L58.3477 609.475L46.4933 609.476L46.4946 640.525Z" fill="#FFB8B8"/>
<path d="M60.2634 638.225H44.7739V648H70.0161C70.0161 646.716 69.7638 645.445 69.2737 644.259C68.7836 643.073 68.0652 641.996 67.1596 641.088C66.254 640.18 65.1789 639.46 63.9956 638.969C62.8124 638.478 61.5442 638.225 60.2634 638.225Z" fill="#2F2E41"/>
<path d="M6.53235 640.525H14.5641L18.3854 609.475L6.53103 609.476L6.53235 640.525Z" fill="#FFB8B8"/>
<path d="M20.3011 638.225H4.81162V648H30.0538C30.0538 646.716 29.8015 645.445 29.3114 644.259C28.8213 643.073 28.1029 641.996 27.1973 641.088C26.2917 640.18 25.2166 639.46 24.0333 638.969C22.8501 638.478 21.5819 638.225 20.3011 638.225Z" fill="#2F2E41"/>
<path d="M86.7854 529.483C87.3632 528.63 87.7473 527.66 87.9107 526.642C88.0741 525.624 88.0128 524.582 87.731 523.59C87.4493 522.598 86.9541 521.681 86.2801 520.901C85.6062 520.122 84.77 519.501 83.8305 519.08L56.5278 443.657L43.0932 451.006L74.2669 523.083C73.6671 524.711 73.6843 526.504 74.3151 528.121C74.946 529.738 76.1467 531.067 77.6898 531.856C79.2328 532.645 81.011 532.839 82.6874 532.402C84.3638 531.964 85.8219 530.926 86.7854 529.483Z" fill="#FFB8B8"/>
<path d="M10.635 543.655C11.5276 543.142 12.2971 542.44 12.8893 541.596C13.4816 540.753 13.8821 539.79 14.0628 538.775C14.2435 537.76 14.2 536.717 13.9352 535.721C13.6704 534.724 13.1908 533.798 12.5302 533.007L20.9883 453.222L5.69935 453.922L2.18416 532.401C0.93254 533.602 0.163694 535.22 0.0232775 536.951C-0.117139 538.681 0.380654 540.403 1.42232 541.791C2.46399 543.178 3.97717 544.134 5.67512 544.477C7.37307 544.821 9.13783 544.529 10.635 543.655Z" fill="#FFB8B8"/>
<path d="M35.0256 429.687C26.1391 429.687 18.9352 422.466 18.9352 413.56C18.9352 404.653 26.1391 397.432 35.0256 397.432C43.9121 397.432 51.116 404.653 51.116 413.56C51.116 422.466 43.9121 429.687 35.0256 429.687Z" fill="#FFB8B8"/>
<path d="M10.7379 525.51H59.2474L59.1891 525.132C59.1019 524.566 50.5436 468.374 56.8557 449.991C57.4891 448.185 57.4334 446.207 56.6993 444.439C55.9652 442.671 54.6047 441.238 52.8795 440.415C43.8574 436.157 26.5386 430.913 11.9213 443.639C9.77028 445.542 8.0906 447.921 7.01504 450.587C5.93949 453.254 5.49755 456.134 5.7242 459.001L10.7379 525.51Z" fill="#087DF1"/>
<path d="M49.9305 476.679L71.77 472.238L61.533 447.923C60.9204 445.569 59.4008 443.553 57.3077 442.32C55.2146 441.086 52.7187 440.735 50.3676 441.343C48.0166 441.952 46.0022 443.47 44.7664 445.565C43.5306 447.66 43.1742 450.16 43.7755 452.518L49.9305 476.679Z" fill="#087DF1"/>
<path d="M21.9595 484.924L23.2724 454.758C24.2681 449.088 21.0292 443.727 16.0482 442.851C11.0657 441.978 6.2006 445.911 5.20049 451.623L0.26546 479.81L21.9595 484.924Z" fill="#087DF1"/>
<path d="M12.3518 521.898C4.54633 551.693 3.6948 589.575 5.80059 630.896L16.2825 629.583L35.281 550.789L45.7629 630.896L57.555 630.24C61.0779 586.884 64.508 549.663 58.8653 525.181L12.3518 521.898Z" fill="#2F2E41"/>
<path d="M24.4236 426.023C27.4254 429.228 33 427.507 33.3911 423.129C33.4218 422.789 33.4196 422.447 33.3845 422.108C33.1826 420.168 32.0647 418.408 32.3325 416.36C32.3931 415.85 32.5825 415.365 32.8828 414.949C35.2748 411.739 40.8899 416.385 43.1474 413.479C44.5317 411.697 42.9045 408.891 43.9667 406.899C45.3687 404.27 49.5214 405.567 52.1255 404.127C55.0229 402.526 54.8496 398.07 52.9423 395.36C50.6163 392.055 46.5381 390.291 42.5106 390.037C38.4832 389.783 34.4835 390.874 30.7235 392.343C26.4514 394.011 22.215 396.317 19.586 400.082C16.3889 404.661 16.0813 410.817 17.6802 416.171C18.6529 419.427 21.9724 423.406 24.4236 426.023Z" fill="#2F2E41"/>
<rect x="96" y="92" width="36" height="540" fill="white"/>
<path d="M86.5 28.915V66H140.5V28.915M82 17.3259V28.915H145V17.3259H82ZM113.5 17.3259C113.5 17.3259 109 -3.53437 95.5 3.41907C82 10.3725 113.5 17.3259 113.5 17.3259C113.5 17.3259 118 -3.53437 131.5 3.41907C145 10.3725 113.5 17.3259 113.5 17.3259ZM113.5 17.3259V66Z" fill="#077DF1"/>
<path d="M86.5 28.915V66H140.5V28.915M113.5 17.3259C113.5 17.3259 109 -3.53437 95.5 3.41907C82 10.3725 113.5 17.3259 113.5 17.3259ZM113.5 17.3259C113.5 17.3259 118 -3.53437 131.5 3.41907C145 10.3725 113.5 17.3259 113.5 17.3259ZM113.5 17.3259V66M82 17.3259V28.915H145V17.3259H82Z" stroke="#FFD166" stroke-width="4" stroke-linecap="round" stroke-linejoin="round"/>
</svg>
