<svg width="45" height="44" viewBox="0 0 45 44" fill="none" xmlns="http://www.w3.org/2000/svg">
      <path d="M4.92857 18.8219V42H40.0714V18.8219M2 11.5787V18.8219H43V11.5787H2ZM22.5 11.5787C22.5 11.5787 19.5714 -1.45898 10.7857 2.88692C2 7.23282 22.5 11.5787 22.5 11.5787C22.5 11.5787 25.4286 -1.45898 34.2143 2.88692C43 7.23282 22.5 11.5787 22.5 11.5787ZM22.5 11.5787V42V11.5787Z" fill="#077DF1"/>
      <path d="M4.92857 18.8219V42H40.0714V18.8219M22.5 11.5787C22.5 11.5787 19.5714 -1.45898 10.7857 2.88692C2 7.23282 22.5 11.5787 22.5 11.5787ZM22.5 11.5787C22.5 11.5787 25.4286 -1.45898 34.2143 2.88692C43 7.23282 22.5 11.5787 22.5 11.5787ZM22.5 11.5787V42M2 11.5787V18.8219H43V11.5787H2Z" stroke="#FFD166" strokeWidth="4" strokeLinecap="round" strokeLinejoin="round"/>
    </svg>