<?xml version="1.0" encoding="UTF-8"?>
<svg version="1.1" xmlns="http://www.w3.org/2000/svg" width="1024" height="1024">
<path d="M0 0 C19.14 0 38.28 0 58 0 C58 16.17 58 32.34 58 49 C53.71 49 49.42 49 45 49 C45 92.23 45 135.46 45 180 C49.29 180 53.58 180 58 180 C58 194.85 58 209.7 58 225 C38.86 225 19.72 225 0 225 C0 150.75 0 76.5 0 0 Z " fill="#323232" transform="translate(388,331)"/>
<path d="M0 0 C19.67354666 4.21576 31.85375427 11.25909083 46 25 C46.86882813 25.83789062 47.73765625 26.67578125 48.6328125 27.5390625 C52.29202838 31.34319782 55.11266975 35.59582344 58 40 C58.45632813 40.68835938 58.91265625 41.37671875 59.3828125 42.0859375 C68.46397371 56.9927493 68.75136778 72.42035352 68.6640625 89.328125 C68.66743911 91.6530584 68.67229873 93.97799006 68.67855835 96.30291748 C68.68588389 101.14743045 68.67536017 105.99147898 68.65185547 110.8359375 C68.62330694 117.01812121 68.63983878 123.1992222 68.66971779 129.38136673 C68.68785319 134.17205858 68.68200513 138.96249691 68.66907883 143.75319672 C68.6657654 146.03197104 68.66975842 148.31076908 68.68147659 150.58951569 C68.77266804 173.2905967 68.77266804 173.2905967 63 183 C62.64211899 183.64129852 62.28423798 184.28259705 61.91551208 184.94332886 C54.97294484 196.64414499 45.33402866 205.65842551 34 213 C33.40316406 213.43828125 32.80632812 213.8765625 32.19140625 214.328125 C27.66323385 217.51499021 22.73559834 219.37747387 17.5625 221.25 C16.85859131 221.5085376 16.15468262 221.7670752 15.42944336 222.03344727 C11.69218485 223.32842569 8.17253161 224.183077 4.23022461 224.57714844 C3.03567909 224.69965973 3.03567909 224.69965973 1.81700134 224.824646 C1.2173909 224.88251282 0.61778046 224.94037964 0 225 C-0.22882192 218.29290612 -0.38605617 211.58682282 -0.49438477 204.87670898 C-0.53955429 202.59605298 -0.60090662 200.31565632 -0.67895508 198.03588867 C-0.78856611 194.75113979 -0.83925812 191.46984203 -0.87890625 188.18359375 C-0.92535782 187.16978134 -0.97180939 186.15596893 -1.01966858 185.11143494 C-1.02270992 180.81428883 -1.01225222 178.10828544 1.96463013 174.84898376 C4.2400854 173.08394499 6.57425716 171.5476346 9 170 C10.72312506 168.28405463 12.40289597 166.52131766 14 164.6875 C14.7425 163.84574219 15.485 163.00398437 16.25 162.13671875 C19.47770249 158.19575164 19.17292687 154.7730328 19.20874023 149.86938477 C19.21852402 149.02844772 19.2283078 148.18751068 19.23838806 147.3210907 C19.26838536 144.52787866 19.28974774 141.73471502 19.30859375 138.94140625 C19.31516558 137.98610456 19.3217374 137.03080288 19.32850838 136.04655266 C19.36113206 130.98295447 19.38556713 125.91937749 19.4050293 120.85571289 C19.42279169 116.67603587 19.45752581 112.49703997 19.50756836 108.31762695 C19.56800381 103.26425308 19.59853838 98.21150728 19.60820198 93.15778923 C19.61672414 91.23816565 19.63546158 89.31855737 19.6649456 87.39914131 C19.85758421 74.13644743 18.75799895 65.19191952 9.5 55 C6.45271834 52.01246896 4.14830143 51.07415072 0 49 C0 32.83 0 16.66 0 0 Z " fill="#323232" transform="translate(477,331)"/>
<path d="M0 0 C15.84 0 31.68 0 48 0 C49.98 6.93 51.96 13.86 54 21 C55.5023646 25.92400615 57.01587244 30.84026393 58.5625 35.75 C67.09203272 63.06695553 67.09203272 63.06695553 69.60546875 73.69921875 C72.7186959 86.43964486 76.70520286 98.95069411 80.5 111.5 C89.14766258 140.09761905 89.14766258 140.09761905 92.140625 152.60058594 C93.85710056 159.39041712 96.12594758 166.02277273 98.3515625 172.66015625 C102.71234541 186.25071653 100.23876987 195.89093461 96 209.125 C95.51693394 210.66886616 95.03515221 212.2131348 94.5546875 213.7578125 C93.38685593 217.51098155 92.19312877 221.25442791 91 225 C82.75 225 74.5 225 66 225 C63.58684572 217.32445873 61.17775291 209.64767642 58.77537155 201.96875763 C57.65914707 198.40142038 56.54129791 194.834611 55.41943359 191.26904297 C46.73113963 163.64832363 46.73113963 163.64832363 43.87402344 151.53613281 C42.13026095 144.48120102 39.90367615 137.56343009 37.75 130.625 C37.26307454 129.04383493 36.77659009 127.462534 36.29052734 125.88110352 C34.10165988 118.76639913 31.89461434 111.65741 29.6796875 104.55078125 C26.7772522 95.21892624 23.90248178 85.91210448 21.5 76.4375 C19.68906105 69.30831226 17.5747976 62.31129303 15.3125 55.3125 C14.98113037 54.28688965 14.64976074 53.2612793 14.30834961 52.20458984 C13.59748024 50.00923348 12.88594542 47.81409251 12.17382812 45.61914062 C10.18168211 39.47696665 8.19388452 33.33373253 6.2383728 27.17977905 C5.79340839 25.78585726 5.34479066 24.39309556 4.89224243 23.00161743 C4.25345649 21.03648641 3.62748433 19.0676578 3.00390625 17.09765625 C2.64111572 15.96851807 2.2783252 14.83937988 1.90454102 13.67602539 C0.80479038 9.20667441 0.45798255 4.5798255 0 0 Z " fill="#323232" transform="translate(209,331)"/>
<path d="M0 0 C15.51 0 31.02 0 47 0 C51.15885121 12.85463101 55.27055478 25.71875984 59.1736145 38.65325928 C59.73118363 40.50017196 60.29216827 42.34605246 60.85327148 44.19189453 C62.64887761 50.17724827 64.30531533 56.16217877 65.765625 62.23828125 C68.66041491 74.17608003 72.41353763 85.88160154 76 97.625 C77.41836724 102.28333789 78.83471686 106.94228673 80.25 111.6015625 C80.58545837 112.70576538 80.92091675 113.80996826 81.26654053 114.94763184 C87.44489635 135.3239414 87.44489635 135.3239414 89.75 145.25 C90.95492065 150.34944279 92.40108921 155.32380531 94.03125 160.3046875 C94.39508789 161.42842773 94.75892578 162.55216797 95.13378906 163.70996094 C95.85770678 165.9247818 96.59828303 168.13425366 97.35839844 170.33691406 C101.88377957 184.23843963 100.14192982 195.71036555 95.5625 209.25 C95.13553499 210.56581229 94.71039592 211.88221852 94.28710938 213.19921875 C91.28621419 222.42757161 91.28621419 222.42757161 90 225 C82.08 225 74.16 225 66 225 C60.62781979 209.24160472 55.53856397 193.44337481 50.75 177.5 C50.50028442 176.67226074 50.25056885 175.84452148 49.99328613 174.99169922 C47.05533917 165.23815978 44.29983658 155.45863262 41.74583435 145.59757996 C40.13911731 139.43067836 38.31455861 133.36322566 36.3125 127.3125 C35.62797752 125.2034262 34.94443672 123.09403362 34.26171875 120.984375 C33.90126465 119.87384766 33.54081055 118.76332031 33.16943359 117.61914062 C31.18589021 111.48050866 29.23109144 105.33299835 27.29330444 99.17977905 C26.85349557 97.78640493 26.41167487 96.39366396 25.96768188 95.00161743 C25.34062717 93.03517743 24.72040183 91.06669479 24.1015625 89.09765625 C23.74400879 87.96851807 23.38645508 86.83937988 23.01806641 85.67602539 C22.24476174 82.88378357 21.64402876 80.21340834 21.12036133 77.37475586 C19.8993599 71.062366 17.93748977 65.02055858 15.97265625 58.90625 C15.37724502 57.03052262 14.78183419 55.15479512 14.18644619 53.27906036 C13.3587009 50.67606257 12.52599896 48.07466067 11.69342041 45.47320557 C10.44129995 41.55719488 9.1961188 37.63897362 7.95034695 33.72093964 C6.97988009 30.66899073 6.00795071 27.61752844 5.03297424 24.5670166 C4.33668925 22.38548685 3.64448336 20.20264944 2.95706177 18.01831055 C2.33409655 16.05364897 1.69574998 14.09377684 1.0397644 12.13989258 C0.75521393 11.26679443 0.47066345 10.39369629 0.17749023 9.49414062 C-0.07500992 8.74217407 -0.32751007 7.99020752 -0.58766174 7.2154541 C-1 5 -1 5 0 0 Z " fill="#323232" transform="translate(120,331)"/>
<path d="M0 0 C20.34124153 -0.65616908 38.97026991 6.6573855 54.53125 19.53125 C55.20349609 20.07007813 55.87574219 20.60890625 56.56835938 21.1640625 C62.66019024 26.14667002 67.74776422 31.4397642 71.40625 38.46875 C71.89867187 39.41234375 72.39109375 40.3559375 72.8984375 41.328125 C73.61386719 42.72804688 73.61386719 42.72804688 74.34375 44.15625 C74.80007813 45.00703125 75.25640625 45.8578125 75.7265625 46.734375 C79.2945341 53.52847661 82.34375 60.38955261 82.34375 68.15625 C74.62134732 68.38465228 66.89981622 68.54213741 59.17480469 68.65063477 C56.54784601 68.69586566 53.92111354 68.75726248 51.29492188 68.83520508 C47.51635996 68.94453185 43.7407935 68.99545076 39.9609375 69.03515625 C38.78884735 69.08160782 37.6167572 69.12805939 36.40914917 69.17591858 C28.43054696 69.18084612 28.43054696 69.18084612 25.22955322 66.16305542 C21.34375 60.50800986 21.34375 60.50800986 21.34375 57.15625 C20.77914062 56.88039063 20.21453125 56.60453125 19.6328125 56.3203125 C18.10592366 55.54384002 16.59964506 54.7254524 15.1171875 53.8671875 C9.11060275 50.52150023 4.20925693 48.86228374 -2.65625 50.15625 C-10.57010016 52.66991973 -15.99986722 57.38530741 -20.65625 64.15625 C-25.30048246 73.31663657 -26.41820554 81.81418622 -26.46875 91.96875 C-26.530625 96.320625 -26.5925 100.6725 -26.65625 105.15625 C-42.49625 105.15625 -58.33625 105.15625 -74.65625 105.15625 C-74.759375 97.64875 -74.8625 90.14125 -74.96875 82.40625 C-75.01427002 80.06176758 -75.05979004 77.71728516 -75.10668945 75.30175781 C-75.22957484 64.48682294 -75.22641789 55.70451307 -69.65625 46.15625 C-69.08098541 44.93843663 -68.5121271 43.71755088 -67.953125 42.4921875 C-62.1816633 31.44479364 -54.80148343 23.33214681 -44.65625 16.15625 C-43.93695312 15.63289063 -43.21765625 15.10953125 -42.4765625 14.5703125 C-29.84275704 5.71316063 -15.32197079 0.9012924 0 0 Z " fill="#333333" transform="translate(641.65625,330.84375)"/>
<path d="M0 0 C17.86986846 -0.43773453 33.21190188 5.33136724 48.4609375 14.12109375 C48.4609375 14.78109375 48.4609375 15.44109375 48.4609375 16.12109375 C49.02296875 16.37890625 49.585 16.63671875 50.1640625 16.90234375 C62.17351212 23.27470477 69.99371463 34.00454578 75.4609375 46.12109375 C75.904375 47.00796875 76.3478125 47.89484375 76.8046875 48.80859375 C77.248125 49.71609375 77.6915625 50.62359375 78.1484375 51.55859375 C78.54417969 52.36167969 78.93992187 53.16476562 79.34765625 53.9921875 C80.40639138 56.96779045 80.98606804 59.71267371 81.53051758 62.81665039 C81.79388664 64.30570641 81.79388664 64.30570641 82.06257629 65.82484436 C82.19403549 66.58260666 82.32549469 67.34036896 82.4609375 68.12109375 C74.73853482 68.34949603 67.01700372 68.50698116 59.29199219 68.61547852 C56.66503351 68.66070941 54.03830104 68.72210623 51.41210938 68.80004883 C47.63354746 68.9093756 43.857981 68.96029451 40.078125 69 C38.90603485 69.04645157 37.7339447 69.09290314 36.52633667 69.14076233 C28.51110378 69.14571249 28.51110378 69.14571249 25.46759033 66.17623901 C23.88720703 63.77709961 23.88720703 63.77709961 22.66555786 61.38853455 C20.11378498 56.58536658 15.77536397 53.86510873 11.1484375 51.24609375 C4.38709078 49.18331001 -1.22189222 49.19498068 -7.7265625 52.12109375 C-17.06901776 57.34876856 -22.21967336 66.16292632 -25.5390625 76.12109375 C-25.69015343 78.33068628 -25.78780051 80.54409422 -25.85546875 82.7578125 C-25.89357666 83.92787842 -25.93168457 85.09794434 -25.97094727 86.3034668 C-26.01405029 87.79015869 -26.05715332 89.27685059 -26.1015625 90.80859375 C-26.2459375 95.53171875 -26.3903125 100.25484375 -26.5390625 105.12109375 C-42.3790625 105.12109375 -58.2190625 105.12109375 -74.5390625 105.12109375 C-74.6421875 97.61359375 -74.7453125 90.10609375 -74.8515625 82.37109375 C-74.89708252 80.02661133 -74.94260254 77.68212891 -74.98950195 75.26660156 C-75.11262357 64.47620276 -75.14837625 55.62982653 -69.5390625 46.12109375 C-68.88570353 44.81561176 -68.23324455 43.50967864 -67.58203125 42.203125 C-55.77886786 21.40470867 -37.3893324 8.20859223 -14.42578125 1.796875 C-9.58173269 0.66288258 -4.9543921 0.23628639 0 0 Z " fill="#323232" transform="translate(820.5390625,330.87890625)"/>
<path d="M0 0 C15.84 0 31.68 0 48 0 C48.061875 3.650625 48.12375 7.30125 48.1875 11.0625 C48.70139515 26.36768299 51.42750494 38.35443246 62.53515625 49.546875 C67.4770621 54.0275363 73.07680016 56.63980174 79.82421875 56.3515625 C86.4761712 55.27674074 93.67931353 52.31211878 98 47 C100.20055205 43.42733903 102.14114628 39.76009172 104 36 C104.495 35.01 104.495 35.01 105 34 C122.16 34 139.32 34 157 34 C155.68037915 45.87658765 152.27378984 54.72884038 145.60546875 64.58203125 C143.84736488 67.11692017 143.84736488 67.11692017 142.25 70.5625 C133.90266363 85.32002717 113.80345117 95.17652262 98.42651367 99.76416016 C76.73193089 105.74501605 55.87338253 100.97895991 36.38671875 90.609375 C32.33600632 88.19878154 29.26530302 85.42079364 26 82 C25.25878906 81.37480469 24.51757812 80.74960937 23.75390625 80.10546875 C15.0454774 72.74903342 9.36972036 64.48361967 5 54 C4.5460083 52.9287085 4.0920166 51.85741699 3.62426758 50.75366211 C-0.47624573 39.92096277 -0.58778785 30.05004266 -0.3125 18.5625 C-0.209375 12.436875 -0.10625 6.31125 0 0 Z " fill="#323232" transform="translate(567,454)"/>
<path d="M0 0 C15.84 0 31.68 0 48 0 C48.3125 11.375 48.3125 11.375 48.38793945 14.89599609 C48.82910145 27.54693355 52.57859213 39.4538135 61.3125 48.9375 C66.01867201 53.24976334 71.56365051 56.10332637 78 56.5 C85.0150462 56.10794153 90.77686934 52.43174723 96 48 C96.66 48 97.32 48 98 48 C98.66 46.68 99.32 45.36 100 44 C101.65 40.7 103.3 37.4 105 34 C122.16 34 139.32 34 157 34 C154.77819568 51.77443455 146.31482626 69.8059749 132.18359375 81.3203125 C131.46300781 81.87460937 130.74242187 82.42890625 130 83 C129.16597656 83.65742187 128.33195313 84.31484375 127.47265625 84.9921875 C109.01302145 99.02892558 88.1471595 104.18996892 65.27734375 101.57421875 C54.58648819 99.57351903 42.99938985 95.21838838 34 89 C34 88.34 34 87.68 34 87 C33.3090625 86.78730469 32.618125 86.57460938 31.90625 86.35546875 C28.12519309 84.59199194 25.51451547 82.1556567 22.5 79.3125 C21.94441406 78.80783203 21.38882813 78.30316406 20.81640625 77.78320312 C14.62871805 72.02501328 10.54369298 65.62027213 7 58 C6.57460938 57.11828125 6.14921875 56.2365625 5.7109375 55.328125 C5.04964844 53.92820312 5.04964844 53.92820312 4.375 52.5 C3.97023438 51.6440625 3.56546875 50.788125 3.1484375 49.90625 C0.44817402 43.07293019 -0.28811801 36.95409851 -0.1953125 29.6875 C-0.19329834 28.92888672 -0.19128418 28.17027344 -0.18920898 27.38867188 C-0.17885444 24.59238518 -0.15093311 21.79618561 -0.125 19 C-0.08375 12.73 -0.0425 6.46 0 0 Z " fill="#323232" transform="translate(746,454)"/>
<path d="M0 0 C8.71844003 -0.02312611 17.43686956 -0.04091646 26.15533352 -0.05181217 C30.20325742 -0.05704041 34.25116041 -0.06413699 38.29907227 -0.07543945 C42.20235971 -0.08627043 46.10562699 -0.09227728 50.0089283 -0.09487724 C51.50133647 -0.09673111 52.99374348 -0.100351 54.48614311 -0.10573006 C56.56948139 -0.11294331 58.65273531 -0.11399083 60.73608398 -0.11352539 C61.92411118 -0.115746 63.11213837 -0.11796661 64.33616638 -0.12025452 C67 0 67 0 68 1 C68.35089562 6.9946395 67.49383237 11.78672028 65.69140625 17.4765625 C65.44929916 18.27214569 65.20719208 19.06772888 64.95774841 19.88742065 C64.16944591 22.46983899 63.36594315 25.04725674 62.5625 27.625 C62.01250285 29.41956401 61.46368564 31.21449005 60.91601562 33.00976562 C59.81149504 36.62569036 58.70160169 40.23988637 57.58642578 43.85253906 C55.36262825 51.05983288 53.17447394 58.27769003 51 65.5 C50.44662964 67.33558472 50.44662964 67.33558472 49.88208008 69.20825195 C47.68421448 76.553308 45.67843096 83.90535304 43.90625 91.36328125 C42.17558797 98.30830864 40.06873718 105.14942768 38 112 C35.03 112 32.06 112 29 112 C27.00683408 107.25436686 25.67064925 102.71058659 24.66381836 97.65942383 C23.17299473 90.55735614 21.30167729 83.59844788 19.28634834 76.63126183 C18.67150313 74.50540269 18.06265209 72.37789786 17.45506287 70.24995422 C16.16268167 65.7276543 14.86296687 61.20748018 13.5625 56.6875 C12.05549437 51.44752404 10.55173673 46.20664489 9.05415154 40.96396828 C8.46379089 38.90238748 7.86862634 36.84223972 7.27308655 34.78215027 C5.28177158 27.85086669 3.4205139 20.89524295 1.72241211 13.88598633 C1.54871629 13.18656512 1.37502047 12.48714392 1.19606113 11.76652813 C0.2500125 7.76556209 -0.1763843 4.10789166 0 0 Z " fill="#323232" transform="translate(299,331)"/>
<path d="M0 0 C7.3594118 5.77970841 11.7384333 13.65084015 13.29296875 22.80078125 C14.16651466 33.73690414 12.02687546 42.60605033 5.453125 51.46875 C-2.38088067 59.92607619 -12.13537128 63.07465098 -23.33203125 63.76171875 C-34.25236199 63.88811147 -43.91110886 60.5857253 -52.01953125 53.17578125 C-58.90850345 45.74294282 -61.94937233 36.86506383 -61.70703125 26.80078125 C-60.84856869 15.92692219 -56.71736988 7.97308992 -48.80859375 0.5234375 C-34.88775871 -10.88750721 -14.5353914 -9.31281834 0 0 Z M-40.23046875 14.07421875 C-44.23724621 18.7593924 -45.29482178 24.45488039 -45.0546875 30.5 C-44.20741532 36.10722822 -42.02879456 40.99787188 -37.70703125 44.73828125 C-31.03928917 49.32235393 -25.74535656 49.42297372 -17.70703125 48.80078125 C-12.27381086 47.12142222 -8.84725365 43.43544684 -5.70703125 38.80078125 C-2.81031099 32.72063462 -2.58920402 26.47661311 -4.546875 20.0390625 C-6.84100661 14.87147311 -9.42432773 11.31008386 -14.46875 8.640625 C-24.22581507 4.97959709 -32.69935557 7.09332388 -40.23046875 14.07421875 Z " fill="#323232" transform="translate(814.70703125,610.19921875)"/>
<path d="M0 0 C1.48831242 0.00667405 2.97660807 0.01863442 4.46484375 0.03515625 C5.22345703 0.03966797 5.98207031 0.04417969 6.76367188 0.04882812 C8.64326246 0.06064945 10.52281274 0.07858547 12.40234375 0.09765625 C12.4163623 2.03415039 12.4163623 2.03415039 12.43066406 4.00976562 C12.47070936 8.82586441 12.5365086 13.64133416 12.60986328 18.45703125 C12.63798874 20.53637577 12.65924496 22.61582554 12.67333984 24.6953125 C12.69488613 27.69455517 12.74159651 30.6925437 12.79296875 33.69140625 C12.79419739 34.61256226 12.79542603 35.53371826 12.79669189 36.48278809 C12.92908938 42.39347706 13.86865285 47.22968429 17.40234375 52.09765625 C20.82564226 54.37985526 22.24372043 54.39506788 26.27734375 54.41015625 C27.30601562 54.42691406 28.3346875 54.44367187 29.39453125 54.4609375 C32.94618017 54.03197211 34.64870991 53.38923966 37.40234375 51.09765625 C40.54353656 45.29955569 40.8690946 40.30784849 40.9140625 33.7890625 C40.9320137 32.82234116 40.9499649 31.85561981 40.96846008 30.85960388 C41.02233886 27.79316478 41.05638684 24.72687933 41.08984375 21.66015625 C41.12303661 19.57224435 41.15752808 17.48435266 41.19335938 15.39648438 C41.2780525 10.29698626 41.34497054 5.19753194 41.40234375 0.09765625 C46.68234375 0.09765625 51.96234375 0.09765625 57.40234375 0.09765625 C57.50178546 6.60802845 57.57408273 13.11795108 57.62207031 19.62890625 C57.64209122 21.8402477 57.66931634 24.05153683 57.70410156 26.26269531 C57.75304002 29.45521003 57.77540842 32.64702021 57.79296875 35.83984375 C57.81361389 36.81629852 57.83425903 37.7927533 57.85552979 38.79879761 C57.85859353 48.33325863 55.08699882 56.42863239 48.43359375 63.40625 C40.72057106 69.82882466 30.37491623 70.57191227 20.703125 69.9140625 C13.25440163 68.7797985 6.43689414 65.67767334 1.51171875 59.8671875 C-5.73339209 48.80608381 -4.89119528 35.96379404 -4.8034668 23.23291016 C-4.78496778 20.44424493 -4.78295923 17.65590828 -4.78320312 14.8671875 C-4.77829569 13.09765335 -4.77247079 11.32812146 -4.765625 9.55859375 C-4.76395576 8.30567032 -4.76395576 8.30567032 -4.76225281 7.0274353 C-4.7047301 0.12770711 -4.7047301 0.12770711 0 0 Z " fill="#323232" transform="translate(685.59765625,603.90234375)"/>
<path d="M0 0 C5.28 0 10.56 0 16 0 C21.23674288 11.15193018 26.35554426 22.35313106 31.42602539 33.58154297 C32.69518875 36.39202626 33.96564755 39.20192114 35.23632812 42.01171875 C36.05736601 43.8280914 36.87833212 45.64449649 37.69921875 47.4609375 C38.07221603 48.28612885 38.44521332 49.11132019 38.82951355 49.96151733 C39.53876802 51.53235261 40.2466417 53.10381224 40.95297241 54.67596436 C41.68209065 56.29435225 42.41710121 57.91009302 43.15664673 59.52374268 C43.52365692 60.33140076 43.89066711 61.13905884 44.26879883 61.97119141 C44.601241 62.69722565 44.93368317 63.42325989 45.27619934 64.17129517 C46 66 46 66 46 68 C40.39 68 34.78 68 29 68 C24.125 58.375 24.125 58.375 23 55 C12.77 54.67 2.54 54.34 -8 54 C-8.33 55.65 -8.66 57.3 -9 59 C-10.21269669 62.06339846 -11.61540165 65.00748098 -13 68 C-18.61 68 -24.22 68 -30 68 C-25.7313153 56.40733481 -20.68682668 45.23398733 -15.5625 34 C-14.72037053 32.14598437 -13.8785717 30.29181852 -13.03710938 28.4375 C-8.72505765 18.94267854 -4.38218533 9.46267011 0 0 Z M7 18 C4.03 25.59 1.06 33.18 -2 41 C4.27 41 10.54 41 17 41 C16.00706811 36.03534054 14.48453512 31.89263473 12.5625 27.25 C12.24990234 26.47011719 11.93730469 25.69023438 11.61523438 24.88671875 C11.31037109 24.14550781 11.00550781 23.40429688 10.69140625 22.640625 C10.41498291 21.96547852 10.13855957 21.29033203 9.85375977 20.59472656 C9.0937552 18.80627016 9.0937552 18.80627016 7 18 Z " fill="#323232" transform="translate(859,604)"/>
</svg>
