<svg width="29" height="26" viewBox="0 0 29 26" fill="none" xmlns="http://www.w3.org/2000/svg">
<line x1="1.5" y1="18.8178" x2="1.5" y2="24.5" stroke="#C1C1C2" stroke-width="3" stroke-linecap="round"/>
<line x1="1.5" y1="24.5" x2="25.5" y2="24.5" stroke="#C1C1C2" stroke-width="3" stroke-linecap="round"/>
<line x1="26.6592" y1="18.8178" x2="26.6592" y2="24.5" stroke="#C1C1C2" stroke-width="3" stroke-linecap="round"/>
<path d="M12 13.938C12 14.7664 12.6716 15.438 13.5 15.438C14.3284 15.438 15 14.7664 15 13.938L12 13.938ZM14.5607 0.939344C13.9749 0.353559 13.0251 0.353559 12.4393 0.939344L2.8934 10.4853C2.30761 11.0711 2.30761 12.0208 2.8934 12.6066C3.47919 13.1924 4.42893 13.1924 5.01472 12.6066L13.5 4.12133L21.9853 12.6066C22.5711 13.1924 23.5208 13.1924 24.1066 12.6066C24.6924 12.0208 24.6924 11.0711 24.1066 10.4853L14.5607 0.939344ZM15 13.938L15 2L12 2L12 13.938L15 13.938Z" fill="#C1C1C2"/>
</svg>
