<?xml version="1.0" encoding="UTF-8"?>
<svg version="1.1" viewBox="0 0 1600 1600" width="1280" height="1280" xmlns="http://www.w3.org/2000/svg">
<path transform="translate(613 544)" d="m0 0c1.15 0.00843 1.15 0.00843 2.32 0.017 0.807-0.0019 1.61-0.0038 2.44-0.00575 2.67-0.00371 5.35 7e-3 8.02 0.0182 1.85 0.00119 3.71 0.00165 5.56 0.00139 3.89 0.00157 7.77 0.00986 11.7 0.0233 4.99 0.017 9.98 0.0208 15 0.0201 3.83 2.72e-4 7.66 0.00575 11.5 0.013 1.84 0.00319 3.68 0.00515 5.52 0.00589 2.57 0.00216 5.14 0.0109 7.71 0.0216 0.766-4.53e-4 1.53-9.06e-4 2.32-0.00137 5.26 0.0322 5.26 0.0322 7.49 1.15v70c-5.94 0.33-11.9 0.66-18 1-1.75 5.24-2.28 9.04-2.24 14.4-0.00256 1.25-0.00256 1.25-0.00518 2.52-0.00329 2.77 0.00769 5.55 0.0186 8.32 5.64e-4 1.99 2.47e-4 3.98-8.85e-4 5.97-5.74e-4 5.4 0.0112 10.8 0.0251 16.2 0.0125 5.65 0.0137 11.3 0.0161 16.9 0.00622 10.7 0.0226 21.4 0.0427 32.1 0.0224 12.2 0.0334 24.3 0.0434 36.5 0.0209 25 0.0561 50.1 0.101 75.1 0.855-0.00786 0.855-0.00786 1.73-0.0159 2.57-0.0207 5.14-0.0338 7.71-0.0466 0.898-0.00838 1.8-0.0168 2.72-0.0254 0.854-0.00322 1.71-0.00645 2.59-0.00977 1.19-0.00786 1.19-0.00786 2.4-0.0159 1.86 0.114 1.86 0.114 2.86 1.11 0.0941 2.02 0.117 4.05 0.114 6.08-1.13e-4 1.95-1.13e-4 1.95-2.29e-4 3.94-0.00511 1.43-0.0103 2.86-0.0156 4.29-0.00186 1.46-0.00329 2.91-0.00429 4.37-0.00382 3.84-0.0137 7.68-0.0247 11.5-0.0102 3.91-0.0148 7.83-0.0198 11.7-0.0107 7.69-0.0278 15.4-0.0488 23.1-11.2 0.0231-22.4 0.0409-33.6 0.0518-5.2 0.00523-10.4 0.0123-15.6 0.0236-5.01 0.0108-10 0.0168-15 0.0194-1.92 0.00185-3.83 0.00548-5.75 0.0109-2.67 0.00721-5.35 0.00826-8.02 0.0078-0.801 0.0036-1.6 0.00719-2.43 0.0109-5.47-0.0104-5.47-0.0104-6.58-1.12-0.0993-1.82-0.127-3.65-0.129-5.47-0.00322-1.2-0.00645-2.39-0.00977-3.62 0.00147-1.34 0.00304-2.69 0.00469-4.03-0.00187-1.41-0.00417-2.83-0.00687-4.24-0.00615-3.9-0.00598-7.81-0.00481-11.7 2.03e-4 -4.2-0.00531-8.41-0.0101-12.6-0.00832-8.24-0.0111-16.5-0.0116-24.7-4.74e-4 -6.7-0.00252-13.4-0.0057-20.1-0.00881-19-0.0134-37.9-0.0127-56.9 4e-5 -1.02 7.99e-5 -2.05 1.21e-4 -3.1 4.09e-5 -1.02 8.18e-5 -2.05 1.24e-4 -3.11 4.07e-4 -16.6-0.00917-33.2-0.0233-49.8-0.0143-17-0.0213-34.1-0.0204-51.1 3.33e-4 -9.57-0.00245-19.1-0.0132-28.7-0.00908-8.15-0.0113-16.3-0.00449-24.5 0.00328-4.16 0.00327-8.32-0.00535-12.5-0.0078-3.81-0.0065-7.61 0.00228-11.4 0.00155-1.38-3.31e-4 -2.76-0.00586-4.14-0.00698-1.87-6.14e-4 -3.74 0.00656-5.6-2.17e-4 -1.04-4.35e-4 -2.08-6.59e-4 -3.15 0.508-4.98 3.43-4.68 7.74-4.71z" fill="#FCFDFF"/>
<path transform="translate(747,545)" d="m0 0c7.1 0.0507 13.4 1.44 20 4 0.755 0.266 1.51 0.531 2.29 0.805 17.2 6.34 30.5 17.8 43.7 30.2 0.99 0.909 0.99 0.909 2 1.84 7.59 7.2 13.8 16.1 19 25.2v2c0.66 0.33 1.32 0.66 2 1 1.23 2.44 2.36 4.86 3.44 7.38 0.469 1.08 0.469 1.08 0.948 2.18 2.16 5.07 3.84 10.1 5.11 15.5 0.331 1.93 0.331 1.93 1.51 2.94 1.4 7.84 1.18 15.8 1.21 23.7 0.00955 1.59 0.0194 3.19 0.0296 4.78 0.0312 5.21 0.0516 10.4 0.0702 15.6 0.0033 0.889 0.00659 1.78 0.00999 2.69 0.0308 8.4 0.0575 16.8 0.0744 25.2 0.0219 10.7 0.0638 21.4 0.133 32.1 0.0474 7.55 0.0715 15.1 0.0788 22.7 0.00493 4.5 0.0198 9 0.0597 13.5 0.0372 4.24 0.0452 8.48 0.032 12.7 5.34e-5 1.54 0.0101 3.09 0.0318 4.63 0.208 15.7-4.79 27.5-13.7 40.4-0.772 1.23-1.54 2.46-2.31 3.69-0.557 0.763-1.11 1.53-1.69 2.31h-2c-0.186 0.66-0.371 1.32-0.562 2-7.63 15.9-31.1 30.8-47.4 37.1-1.64 0.474-3.28 0.92-4.93 1.33-3.2 0.809-6.11 2.22-9.13 3.54-6.63 2.66-12.9 3.61-20 4-1.41-2.82-1.22-5.28-1.32-8.43-0.021-0.66-0.0421-1.32-0.0637-2-0.183-6.1-0.289-12.2-0.372-18.3-0.0566-4.1-0.138-8.19-0.28-12.3-0.137-3.96-0.209-7.93-0.237-11.9-0.0214-1.51-0.0653-3.01-0.133-4.52-0.203-4.75-0.158-9.01 1.41-13.6 3.22-2.95 5.93-4.55 9.85-6.44 4.22-2.1 6.4-4.86 9.15-8.56 1.33-1.33 2.67-2.67 4-4 6.83-7.87 7.44-14 7.42-24.2 0.00735-1.34 0.0159-2.68 0.0257-4.02 0.0222-3.63 0.0251-7.27 0.0233-10.9-1.2e-4 -3.04 0.00846-6.08 0.0168-9.12 0.0192-7.18 0.0221-14.4 0.0154-21.6-0.00663-7.39 0.0162-14.8 0.0533-22.2 0.0308-6.36 0.042-12.7 0.0382-19.1-0.00206-3.79 0.00325-7.58 0.0279-11.4 0.0224-3.57 0.0202-7.14 7.25e-5 -10.7-0.00498-1.92 0.0145-3.83 0.035-5.75-0.125-13-5.1-23.5-13.7-33.2-4.23-3.89-8.76-7.23-13.6-10.4-2.44-1.62-2.44-1.62-3.44-3.62-0.0969-2.15-0.128-4.3-0.129-6.45-0.00175-0.662-0.0035-1.32-0.00531-2.01-0.00441-2.19-0.00148-4.38 0.00189-6.58-6.73e-4 -1.52-0.00164-3.04-0.0029-4.56-0.00148-3.19 6.73e-4 -6.37 0.00534-9.56 0.0057-4.09 0.00241-8.18-0.00357-12.3-0.00361-3.14-0.00247-6.27 1.28e-4 -9.41 6.69e-4 -1.51-1.58e-4 -3.02-0.00248-4.53-0.00253-2.1 0.00131-4.21 0.0069-6.31 7.96e-4 -1.2 0.00159-2.4 0.00241-3.64 0.127-2.69 0.127-2.69 1.13-3.69z" fill="#FBFCFE"/>
<path transform="translate(189,544)" d="m0 0c2.86-0.361 2.86-0.361 6.56-0.341 1.01-6.57e-4 1.01-6.57e-4 2.04-0.00133 2.23 0.00209 4.46 0.0254 6.69 0.0489 1.54 0.00559 3.09 0.00987 4.63 0.0129 4.07 0.0115 8.13 0.0409 12.2 0.0741 4.15 0.0307 8.3 0.0444 12.4 0.0595 8.14 0.0322 16.3 0.0834 24.4 0.146 3.27 7.44 3.27 7.44 4.06 10.9 0.157 0.659 0.315 1.32 0.477 2 0.152 0.664 0.304 1.33 0.461 2.01 1.16 5.02 2.55 9.88 4.21 14.8 1.4 4.23 2.58 8.52 3.79 12.8 2.67 9.46 5.45 18.9 8.44 28.2 2.09 6.62 3.94 13.3 5.67 20 0.853 3.15 1.85 6.21 2.89 9.3 0.764 2.48 1.52 4.95 2.25 7.44 0.213 0.718 0.425 1.44 0.644 2.18 2.16 7.41 4.09 14.9 5.96 22.4 1.4 5.51 3.1 10.7 5.14 16 0.377 1.47 0.721 2.95 1 4.44 0.609 2.99 1.38 5.83 2.38 8.71 1.69 4.99 3.14 10 4.56 15.1 1.61 5.7 3.23 11.4 5 17.1 2.88 9.23 5.53 18.5 8.23 27.8 1.12 3.85 2.26 7.7 3.4 11.5 1.31 4.43 2.6 8.87 3.87 13.3 0.247 0.868 0.495 1.74 0.749 2.63 0.505 1.78 1.01 3.56 1.51 5.34 1.26 4.45 2.57 8.85 4.03 13.2 6.82 20.7 3.83 36.5-3.1 56.9-2.45 7.22-4.49 14.6-6.61 21.9-5.07 0.0741-10.1 0.129-15.2 0.165-1.73 0.0151-3.45 0.0356-5.18 0.0615-2.48 0.0364-4.96 0.0534-7.44 0.0667-1.16 0.0232-1.16 0.0232-2.34 0.0469-5.33 0.00168-5.33 0.00168-7.78-1.68-1.6-2.53-2.11-5.07-2.8-7.97-1.63-6.62-3.62-13.1-5.75-19.6-2.47-7.58-4.62-15.1-6.26-22.9-0.704-3.29-1.35-5.35-3.24-8.19-0.724-2.44-1.39-4.85-2-7.31-1.17-4.63-2.49-9.16-4-13.7-0.778-3.06-1.5-6.12-2.22-9.2-0.665-2.73-0.665-2.73-1.79-4.81-1.26-2.52-1.8-5-2.43-7.74-0.855-3.57-1.75-6.97-3.12-10.4-1.52-3.78-2.24-7.57-2.91-11.6-0.432-2.3-0.432-2.3-1.5-4.23-1.27-2.55-1.83-5.04-2.47-7.81-0.826-3.44-1.66-6.73-3-10-1.9-4.72-2.97-9.67-4.12-14.6-0.826-3.48-1.81-6.47-3.45-9.63-0.705-2.26-1.37-4.53-2-6.81-0.495-1.77-0.495-1.77-1-3.58-0.33-1.19-0.66-2.38-1-3.61-0.92-3.29-1.85-6.56-2.94-9.79-1.77-5.36-3.24-10.8-4.76-16.2-1.41-4.99-2.92-9.92-4.59-14.8-1.13-3.37-2.15-6.78-3.15-10.2-0.212-0.72-0.425-1.44-0.644-2.18-1.7-5.82-3.2-11.7-4.57-17.6-0.792-3.32-1.78-6.16-3.34-9.18-0.537-1.8-1.04-3.62-1.5-5.44-0.698-2.73-1.4-5.32-2.47-7.92-1.33-3.41-2.13-6.9-2.96-10.5-1.54-6.4-1.54-6.4-3.69-12.6-1.59-4.13-2.52-8.23-3.38-12.6h-1c-0.268-1.07-0.536-2.14-0.812-3.25-0.183-0.728-0.366-1.46-0.555-2.21-0.45-1.81-0.892-3.62-1.33-5.43-1.36-5.57-2.83-10.9-4.95-16.3-0.355-1.84-0.355-1.84 1.64-4.84zm78 268 1 2z" fill="#FCFDFF"/>
<path transform="translate(332 544)" d="m0 0c1.2 0.00143 2.4 0.00285 3.63 0.00432 0.66-0.0019 1.32-0.0038 2-0.00575 2.19-0.00371 4.37 7e-3 6.56 0.0182 1.52 0.00119 3.03 0.00164 4.55 0.00139 3.18 0.00157 6.36 0.00986 9.54 0.0233 4.08 0.017 8.16 0.0208 12.2 0.0201 3.13 2.72e-4 6.27 0.00575 9.4 0.013 1.51 0.00319 3.01 0.00515 4.52 0.00589 2.1 0.00216 4.2 0.0109 6.31 0.0216 1.2 0.00381 2.4 0.00762 3.63 0.0116 2.81 0.134 2.81 0.134 4.81 1.13 0.527 1.75 0.527 1.75 0.938 4 0.733 3.99 1.94 7.69 3.24 11.5 1.7 5.17 3.1 10.4 4.57 15.7 1.4 4.98 2.9 9.89 4.6 14.8 0.688 2.16 1.19 4.32 1.65 6.54 0.778 3.69 1.85 7.16 3.08 10.7 3.11 9.41 5.73 19 8.3 28.6 0.938 3.39 2.08 6.7 3.25 10 2.65 7.7 4.63 15.6 6.67 23.4 1.65 6.24 3.56 12.2 5.83 18.3 1.21 3.48 1.87 6.86 2.49 10.5 0.89 5.31 0.89 5.31 3.38 10 0.516 1.73 0.966 3.49 1.38 5.25 1.16 4.83 2.36 9.64 3.62 14.4 0.309 1.18 0.619 2.36 0.938 3.57 0.774 2.72 1.6 5.38 2.5 8.05 1.67 4.93 3.09 9.92 4.5 14.9 1.7 6.02 3.43 12 5.31 18 1.13 3.61 2.11 7.17 2.88 10.9 0.64 3.91 0.64 3.91 2.88 6.88 0.639 2.3 1.21 4.61 1.75 6.94 1.32 5.62 2.87 11.1 4.68 16.6 6.16 19.1 2.7 33.3-3.53 51.8-1.2 3.64-2.15 7.33-3.12 11-0.781 2.68-0.781 2.68-1.81 5.21-0.975 2.49-1.48 4.85-1.97 7.47-5.23 0.0494-10.5 0.0857-15.7 0.11-1.78 0.0101-3.56 0.0237-5.34 0.041-2.56 0.0242-5.11 0.0356-7.67 0.0444-0.799 0.0103-1.6 0.0206-2.42 0.0313-1.96 3.99e-4 -3.91-0.104-5.87-0.227-2.69-2.69-3.12-5.66-4-9.25-1.17-4.65-2.48-9.2-4-13.8-0.498-1.95-0.977-3.91-1.44-5.88-0.838-3.42-1.7-6.73-3-10-3.52-8.88-5.69-18.3-7.85-27.6-0.614-2.49-0.614-2.49-1.7-4.49-1.28-2.57-1.85-5.11-2.51-7.91-0.972-4.13-2.13-8.11-3.5-12.1-2.73-8.46-5.35-16.9-7.32-25.5-0.582-2.43-0.582-2.43-1.66-4.41-1.28-2.58-1.86-5.12-2.51-7.91-1.19-4.91-2.51-9.63-4.37-14.3-2.48-6.44-4.2-12.9-5.65-19.6-0.927-4.23-2.15-8.15-3.73-12.2-1.28-3.4-2.26-6.89-3.26-10.4-0.406-1.4-0.812-2.81-1.22-4.21-0.206-0.714-0.412-1.43-0.625-2.16-0.696-2.39-1.41-4.77-2.13-7.14-1.54-5.12-3.01-10.3-4.46-15.4-2.68-9.43-5.48-18.8-8.5-28.1-2.68-8.34-5.19-16.7-7.23-25.2-1.04-4.3-2.28-8.46-3.75-12.6-0.739-2.22-1.13-4.47-1.59-6.76-0.301-0.582-0.602-1.16-0.912-1.77-1.3-2.67-2.1-5.33-2.93-8.18-0.341-1.16-0.682-2.32-1.03-3.52-0.351-1.21-0.703-2.42-1.06-3.66-0.696-2.38-1.39-4.76-2.09-7.13-0.334-1.14-0.668-2.29-1.01-3.47-1.09-3.71-2.21-7.42-3.34-11.1-0.854-2.99-1.5-6-2.14-9.04-0.688-3.08-1.57-6.09-2.47-9.12 2-2 2-2 4.81-2.25zm52.2 192 1 2zm40 134 1 2z" fill="#FCFDFF"/>
<path transform="translate(1328,551)" d="m0 0c1.25 0.454 1.25 0.454 2.54 0.918 6.79 2.59 12.9 5.96 19.2 9.71 0.803 0.48 1.61 0.959 2.43 1.45 0.748 0.461 1.5 0.923 2.27 1.4 0.672 0.413 1.34 0.827 2.04 1.25 1.58 1.27 1.58 1.27 2.58 4.27 1.66 0.69 3.33 1.35 5 2 3.96 2.71 6.9 6.04 9.98 9.68 1.44 1.66 2.93 3.28 4.45 4.87 14.6 15.3 14.6 15.3 14.6 22.5h2c0.254 0.641 0.508 1.28 0.77 1.94 1.53 3.85 3.07 7.69 4.73 11.5 1.24 2.95 2.46 5.89 3.62 8.88 0.333 0.842 0.665 1.68 1.01 2.55 0.79 2.86 1.15 5.39 1.42 8.33 0.085 0.9 0.17 1.8 0.258 2.73 0.0621 0.685 0.124 1.37 0.188 2.08-10.3 0.139-20.7 0.246-31 0.311-4.8 0.0313-9.61 0.0738-14.4 0.142-4.64 0.0652-9.27 0.101-13.9 0.117-1.77 0.0111-3.54 0.0327-5.3 0.0651-2.48 0.0436-4.95 0.0496-7.43 0.0468-0.73 0.0216-1.46 0.0431-2.21 0.0654-2.81-0.0341-5.03-0.188-7.24-2.03-2.65-3.11-4.72-6.63-6.77-10.2-5.71-9.08-13.3-14.7-23.5-18.2-3.33-0.581-6.64-0.608-10-0.633-0.686-0.0206-1.37-0.0412-2.08-0.0625-6.45-0.0488-10.7 2.08-16.4 5-2.69 1.31-2.69 1.31-4.69 1.31-0.495 1.49-0.495 1.49-1 3-1.64 1.51-1.64 1.51-3.69 3.12-3.92 3.29-6.47 6.78-9.09 11.2-0.405 0.568-0.81 1.14-1.23 1.72h-2c-0.182 0.568-0.364 1.14-0.551 1.72-1.22 3.75-2.46 7.43-4.07 11-2.48 5.87-2.57 11.4-2.69 17.7-0.0187 0.801-0.0373 1.6-0.0565 2.43-0.068 2.98-0.128 5.95-0.19 8.93-0.144 6.66-0.289 13.3-0.438 20.2h-71c-1.37-2.75-1.16-4.99-1.19-8.06-0.0161-1.28-0.0321-2.55-0.0487-3.87-0.0115-1.4-0.0221-2.81-0.0319-4.21-0.00532-0.709-0.0106-1.42-0.0161-2.15-0.0268-3.76-0.0461-7.53-0.0605-11.3-0.0132-3.09-0.0409-6.18-0.082-9.28-0.0499-3.75-0.0742-7.5-0.0812-11.3-0.00664-1.42-0.0217-2.84-0.0459-4.25-0.218-13.6 3.39-24.5 9.87-36.3 0.382-0.711 0.763-1.42 1.16-2.15 2.89-5.27 6.12-10.1 9.8-14.9 1.79-2.3 1.79-2.3 3.3-4.94 1.76-2.92 3.98-4.97 6.42-7.36 0.744-0.933 1.49-1.87 2.25-2.83 2.75-3.33 5.87-5.89 9.31-8.48 0.564-0.442 1.13-0.883 1.71-1.34 2.81-2.15 5.17-3.89 8.73-4.35v-2c8.25-4.81 16.4-9.49 25.3-12.9 2.64-0.99 2.64-0.99 4.91-2.13 23-10.8 57.8-8.23 80.8 1.08zm-162 85 1 3z" fill="#FCFDFF"/>
<path transform="translate(1088 574)" d="m0 0c1.19 1.14 2.3 2.36 3.4 3.59v2c0.639 0.268 1.28 0.536 1.94 0.812 2.06 1.19 2.06 1.19 3.06 4.19 0.99 0.33 1.98 0.66 3 1 2.29 2.46 4.17 5.26 6.12 8 0.864 1.21 0.864 1.21 1.75 2.44 7.51 10.7 14 21.8 17.1 34.6 0.759 2.24 1.55 4.47 2.35 6.7 0.854 3.03 1.2 6.18 1.65 9.3h-81c-0.33-0.99-0.66-1.98-1-3h-2c-0.303-0.568-0.606-1.14-0.918-1.72-6.64-12.2-13-19.5-26.5-24.4-11.2-2.85-20.8-1.38-30.6 4.34-13.5 8.98-24.1 23.2-27.6 39.2-0.705 4.04-0.795 8.04-0.852 12.1-0.0176 0.777-0.0353 1.55-0.0535 2.36-0.0623 2.86-0.109 5.72-0.157 8.58-0.186 9.62-0.186 9.62-0.375 19.4h-70c-1.38-2.76-1.14-5.02-1.16-8.11-0.00961-1.29-0.0192-2.57-0.0291-3.9-0.00485-1.41-0.00913-2.83-0.0129-4.24-0.00576-1.45-0.0115-2.9-0.0173-4.35-0.0105-3.05-0.0164-6.1-0.0198-9.15-0.00545-3.88-0.0294-7.76-0.058-11.6-0.0188-3-0.0238-6-0.0254-9.01-3e-3 -1.43-0.0109-2.86-0.0242-4.28-0.11-12.8 2-22.7 8.16-33.9 0.443-0.823 0.886-1.65 1.34-2.49 3-5.51 6.22-10.8 9.85-15.9 0.557-0.949 1.11-1.9 1.69-2.88 1.28-2.07 2.59-3.42 4.31-5.12 1.11-1.29 2.21-2.58 3.31-3.88 2.99-3.43 6.12-6.29 9.69-9.12 1.25-1.12 2.5-2.25 3.75-3.38 12.9-11.2 27.8-19.2 44.2-23.6 1.01-0.34 2.02-0.681 3.07-1.03 38.2-12.6 83.1 0.42 113 26.4z" fill="#FCFDFF"/>
<path transform="translate(1170 736)" d="m0 0c1.2 0.00143 2.4 0.00285 3.63 0.00432 0.66-0.0019 1.32-0.0038 2-0.00575 2.19-0.00371 4.37 7e-3 6.56 0.0182 1.52 0.00119 3.03 0.00164 4.55 0.00139 3.18 0.00157 6.36 0.00986 9.54 0.0233 4.08 0.017 8.16 0.0208 12.2 0.0201 3.13 2.72e-4 6.27 0.00575 9.4 0.013 1.51 0.00319 3.01 0.00515 4.52 0.00589 2.1 0.00216 4.2 0.0109 6.31 0.0216 1.2 0.00381 2.4 0.00762 3.63 0.0116 2.81 0.134 2.81 0.134 4.81 1.13 0.0146 0.855 0.0292 1.71 0.0442 2.59-0.521 27.2-0.521 27.2 7.96 52.4 0.555 1.07 0.555 1.07 1.12 2.16 3.31 6.35 7.25 13.2 13.1 17.5 0.589 0.451 1.18 0.902 1.79 1.37v2c0.99 0.371 0.99 0.371 2 0.75 3.11 1.3 6.06 2.78 9.04 4.35 4.8 2.2 9.53 2.12 14.7 2.15 0.773 0.0206 1.55 0.0412 2.34 0.0625 5.57 0.0374 9.85-1.03 14.9-3.31 0.777-0.327 1.55-0.655 2.36-0.992 4.37-2.1 7.39-4.33 10.6-8.01 0.532-0.53 1.06-1.06 1.61-1.61 4.56-4.74 7.35-9.82 10.1-15.7 2.12-4.57 2.12-4.57 4.31-5.66 2.3-0.0973 4.6-0.128 6.9-0.129 0.709-0.00175 1.42-0.0035 2.15-0.00531 2.35-0.00441 4.7-0.00148 7.05 0.00189 1.63-6.73e-4 3.26-0.00164 4.89-0.0029 3.42-0.00148 6.83 6.74e-4 10.2 0.00534 4.39 0.0057 8.77 0.00242 13.2-0.00357 3.36-0.00361 6.73-0.00247 10.1 1.28e-4 1.62 6.68e-4 3.23-1.56e-4 4.85-0.00248 2.26-0.00253 4.52 0.00132 6.77 0.0069 1.93 0.00119 1.93 0.00119 3.9 0.00241 3 0.127 3 0.127 5 1.13-0.116 1.38-0.243 2.75-0.375 4.12-0.0696 0.766-0.139 1.53-0.211 2.32-0.488 3.01-1.4 5.68-2.41 8.55-0.59 1.85-0.59 1.85-1.19 3.74-4.44 13.6-10.6 26.2-19.8 37.3-0.66 0.846-1.32 1.69-2 2.56-0.66 0.804-1.32 1.61-2 2.44-0.677 0.833-0.677 0.833-1.37 1.68-0.498 0.599-0.995 1.2-1.51 1.82-0.451 0.547-0.902 1.09-1.37 1.66-12.2 12.8-29.3 24.6-46.4 29.2-2.37 0.647-2.37 0.647-4.77 1.66-19.3 7.65-43.6 7.85-63.6 3.01-1.5-0.316-3-0.629-4.5-0.938-10.1-2.3-19.2-6.58-28.5-11.1v-2c-0.949-0.165-1.9-0.33-2.88-0.5-5.69-1.66-9.71-5.71-14.1-9.5-1.14-0.938-2.29-1.87-3.44-2.81-7.43-6.12-13.8-12.4-19.6-20.2-0.694-0.926-1.39-1.85-2.1-2.8-4.9-6.73-4.9-6.73-4.9-10.2h-2c-8.47-16.3-14.1-32.2-14.2-50.7-0.00333-1.12-0.00666-2.24-0.0101-3.39-0.00505-2.36-0.00741-4.71-0.00725-7.07-0.0022-3.62-0.0204-7.24-0.0393-10.9-0.00293-2.29-0.00492-4.58-0.00586-6.87-0.00719-1.09-0.0144-2.17-0.0218-3.29 0.00308-1 0.00615-2 0.00932-3.03-0.00143-0.883-0.00285-1.77-0.00432-2.68 0.405-3.5 1.67-4.09 5.06-4.38zm-3.81 50.2 1 3zm171 2v1h9v-1h-9zm-53 36v1h5v-1h-5z" fill="#FCFDFF"/>
<path transform="translate(895 736)" d="m0 0c1.31-0.00315 2.63-0.0063 3.98-0.00955 1.44 0.00179 2.87 0.00384 4.31 0.00613 1.47-6.74e-4 2.94-0.00164 4.41-0.0029 3.08-0.00147 6.16 6.69e-4 9.24 0.00534 3.95 0.0057 7.91 0.00241 11.9-0.00357 3.04-0.00361 6.07-0.00247 9.11 1.28e-4 1.46 6.68e-4 2.92-1.55e-4 4.37-0.00248 2.03-0.00253 4.07 0.00201 6.1 0.0069 1.74 0.00119 1.74 0.00119 3.51 0.00241 2.73 0.127 2.73 0.127 4.73 1.13 0.00935 0.916 0.0187 1.83 0.0283 2.78 0.0447 3.48 0.107 6.96 0.179 10.4 0.0278 1.49 0.0492 2.98 0.0635 4.47 0.217 21.4 5.57 40.3 21 55.8 3.64 3.37 7.34 6.23 11.7 8.53 1.02 0.539 2.05 1.08 3.1 1.63 4.73 1.98 9.47 1.77 14.5 1.68 0.928 0.00322 1.86 0.00645 2.81 0.00977 4.61-0.0364 8.4-0.132 12.6-2.32 0.706-0.333 1.41-0.665 2.14-1.01 10.4-5.49 17.1-12.5 22.3-22.9 0.509-0.998 1.02-2 1.54-3.02 0.454-0.937 0.908-1.87 1.38-2.84 1.62-2.22 1.62-2.22 3.8-2.85 3.26-0.427 6.41-0.505 9.7-0.515 0.671-0.00336 1.34-0.00672 2.03-0.0102 2.2-0.00945 4.41-0.0114 6.61-0.0125 1.54-0.00321 3.07-0.00658 4.61-0.0101 3.21-0.00598 6.42-0.00784 9.63-0.00725 4.12 1.02e-4 8.24-0.0136 12.4-0.0308 3.17-0.0111 6.33-0.0131 9.5-0.0126 1.52-0.00118 3.04-0.00562 4.56-0.0133 2.12-0.00976 4.24-0.00694 6.36-8.95e-4 1.81-0.00214 1.81-0.00214 3.66-0.00432 2.83 0.247 2.83 0.247 4.83 2.25-0.463 14.3-7.49 28.5-14 41h-2c-0.186 0.784-0.371 1.57-0.562 2.38-2 5.06-4.94 9.46-8.44 13.6h-2c-0.247 0.557-0.495 1.11-0.75 1.69-2.8 5.19-6.62 8.79-11.2 12.3h-2c-0.371 0.959-0.371 0.959-0.75 1.94-1.25 2.06-1.25 2.06-3.31 2.62-0.959 0.217-0.959 0.217-1.94 0.438-0.33 0.99-0.66 1.98-1 3-10.4 7.41-22.9 13.2-35 17-1.7 0.539-1.7 0.539-3.43 1.09-11.8 3.57-22.8 4.09-35.1 4.1-1.25 0.0122-2.51 0.0245-3.8 0.0371-7.18 0.0113-13.7-0.486-20.7-2.22-1.39-0.31-2.77-0.62-4.16-0.93-7.28-1.73-14.2-3.6-20.8-7.07-0.62-0.311-1.24-0.622-1.88-0.942-8.63-4.33-16.9-8.62-24.1-15.1-1.21-1.05-1.21-1.05-2.44-2.12-4.28-3.78-8.45-7.67-12.6-11.6-1.08-1.04-1.08-1.04-2.19-2.11-1.94-2.29-2.86-4.32-3.81-7.14h-2c-1.14-1.35-1.14-1.35-2.39-3.26-0.46-0.7-0.919-1.4-1.39-2.12-0.726-1.14-0.726-1.14-1.47-2.3-0.494-0.774-0.989-1.55-1.5-2.35-6.6-10.5-11-20.7-13.3-33h-1c-1.76-7.28-2.28-14.1-2.23-21.6 4.58e-4 -1.07 9.16e-4 -2.14 0.00139-3.24 3e-3 -2.24 0.0108-4.48 0.0233-6.72 0.0184-3.44 0.0205-6.88 0.0203-10.3 0.00491-2.18 0.0107-4.36 0.0176-6.54 0.00111-1.03 0.00223-2.06 0.00337-3.12 0.00638-0.949 0.0128-1.9 0.0193-2.87 0.00381-0.836 0.00762-1.67 0.0116-2.53 0.134-2.03 0.134-2.03 1.13-4.03 3.34-1.11 5.85-1.13 9.37-1.13zm-9.37 3.13 1 2zm0 39 1 2zm119 46 4 1z" fill="#FBFCFE"/>
<path transform="translate(478 544)" d="m0 0c1.45-0.00263 1.45-0.00263 2.92-0.00531 3.2-0.00441 6.4-0.00148 9.6 0.00189 2.21-6.73e-4 4.43-0.00164 6.64-0.0029 4.64-0.00148 9.29 6.76e-4 13.9 0.00534 5.97 0.0057 11.9 0.00242 17.9-0.00357 4.57-0.0036 9.15-0.00247 13.7 1.28e-4 2.2 6.69e-4 4.4-1.59e-4 6.6-0.00248 3.07-0.00253 6.14 0.00131 9.21 0.0069 0.919-0.00202 1.84-0.00405 2.78-0.00613 6.27 0.0213 6.27 0.0213 7.38 1.14 0.72 10.4-1.71 21-5.25 30.8-1.19 3.45-2.08 6.98-3.01 10.5-0.817 2.93-1.77 5.79-2.75 8.68-2.33 7.26-4.46 14.5-6.19 22-0.642 2.42-1.37 4.73-2.18 7.09-2 5.91-3.55 11.9-5.13 18-1.95 7.42-3.99 14.7-6.5 22-2.39 7.42-4.51 14.9-6.35 22.4-0.736 2.91-1.7 5.72-2.65 8.57-0.487 1.98-0.965 3.96-1.44 5.94-1.13 4.63-2.51 8.77-4.56 13.1-1.44 0.108-2.87 0.186-4.31 0.25-0.801 0.0464-1.6 0.0928-2.43 0.141-2.26-0.391-2.26-0.391-3.96-2.13-3.99-6.92-5.04-15.4-6.55-23.2-0.656-2.73-1.5-4.63-2.75-7.1-0.547-2.09-1.04-4.2-1.5-6.31-1.24-5.56-2.65-11-4.37-16.4-2.16-6.85-4.06-13.7-5.73-20.7-0.949-3.93-2.09-7.73-3.4-11.6-0.453-1.56-0.89-3.12-1.31-4.69-0.251-0.932-0.503-1.86-0.762-2.82-0.736-2.77-1.47-5.55-2.2-8.32-0.223-0.851-0.446-1.7-0.677-2.58-0.448-1.71-0.895-3.42-1.34-5.13-0.311-1.19-0.311-1.19-0.628-2.4-0.185-0.71-0.37-1.42-0.561-2.15-0.454-1.65-0.983-3.28-1.52-4.91-0.614-2.25-1.22-4.5-1.81-6.75-0.361-1.36-0.721-2.72-1.08-4.08-0.276-1.04-0.276-1.04-0.557-2.1-0.846-3.19-1.7-6.38-2.55-9.57-0.325-1.22-0.65-2.45-0.984-3.71-0.709-2.65-1.43-5.29-2.16-7.93-0.186-0.678-0.371-1.36-0.562-2.05-0.518-1.89-1.04-3.78-1.56-5.66-0.734-3.14-0.734-3.14-0.734-7.14 3.47-1.73 7.48-1.14 11.3-1.13zm-8.3 12.1 1 2zm20 74 1 2z" fill="#FBFCFE"/>
<path transform="translate(48.3 966)" d="m0 0c1.37 0.0174 1.37 0.0174 2.78 0.0352 0.919 0.00902 1.84 0.018 2.79 0.0273 0.71 0.0116 1.42 0.0232 2.15 0.0352v2h2c0.254 0.918 0.508 1.84 0.77 2.78 1.61 5.73 3.2 11.4 5.39 16.9 0.937 2.57 1.73 5.17 2.52 7.79 1.94 6.41 4.04 12.7 6.5 18.9 0.25 0.645 0.5 1.29 0.757 1.95 1.24 3.47 1.24 3.47 4.06 5.61-0.0619-0.969-0.124-1.94-0.188-2.94 0.0188-4.74 1.58-8.65 3.19-13.1 0.777-2.31 1.55-4.62 2.31-6.94 0.431-1.29 0.862-2.58 1.29-3.87 0.994-2.98 1.97-5.97 2.95-8.95 0.262-0.799 0.524-1.6 0.794-2.42 0.508-1.55 1.01-3.1 1.51-4.65 3.44-10.5 3.44-10.5 6.14-13.2 1.85-0.0723 3.71-0.0838 5.56-0.0625 1.01 0.00902 2.02 0.018 3.07 0.0273 0.782 0.0116 1.56 0.0232 2.37 0.0352 2.12 4.76 3.88 9.51 5.38 14.5 0.432 1.41 0.866 2.82 1.3 4.23 0.328 1.06 0.328 1.06 0.663 2.15 2.71 8.68 5.66 17.3 8.82 25.8 0.711 1.96 1.35 3.95 1.96 5.94 0.627 2.54 0.627 2.54 2.88 3.38v-2c-0.66-0.33-1.32-0.66-2-1h2c0.159-0.692 0.317-1.38 0.48-2.1 2.37-9.94 5.44-19.6 9.14-29.2 1.15-3.13 2.04-6.16 2.88-9.38 1.08-4.08 2.29-7.73 4.5-11.4 2.38-1.19 3.91-1.13 6.56-1.12 1.21-0.00387 1.21-0.00387 2.44-0.00781 2 0.133 2 0.133 3 1.13-0.342 4.96-1.17 8.5-3.2 13.1-1.39 3.35-2.32 6.82-3.3 10.3-1.46 5.13-3 10.2-4.71 15.3-0.84 2.49-1.66 4.98-2.48 7.47-0.585 1.77-1.17 3.54-1.75 5.32-0.287 0.877-0.574 1.75-0.869 2.66-2.01 6.07-4.27 12-6.69 17.9h-14c-3.45-6.43-5.99-12.6-8.01-19.6-1.22-4.16-2.6-8.26-3.99-12.4-1.06-3.15-2.13-6.29-3.19-9.44-0.409-1.2-0.409-1.2-0.826-2.43-0.257-0.765-0.514-1.53-0.779-2.32-0.232-0.686-0.465-1.37-0.704-2.08-0.503-1.74-0.503-1.74-0.503-3.74-0.66-0.33-1.32-0.66-2-1-0.11 0.657-0.219 1.31-0.332 1.99-0.846 3.81-2.09 7.45-3.36 11.1-1.96 5.77-3.84 11.5-5.63 17.4-2.4 7.81-5.07 15.2-8.69 22.5h-14v-2c-1.48-0.495-1.48-0.495-3-1-1.06-2.84-1.06-2.84-2-6.5-1.31-4.91-2.7-9.73-4.35-14.5-0.634-1.9-1.18-3.84-1.71-5.77-0.782-3.03-0.782-3.03-1.89-5.04-1.22-2.51-1.95-4.99-2.7-7.68-0.3-1.06-0.601-2.11-0.91-3.2-0.623-2.22-1.25-4.44-1.87-6.66-0.3-1.06-0.601-2.11-0.91-3.2-0.27-0.964-0.54-1.93-0.818-2.92-0.788-2.69-0.788-2.69-2.84-5.48-0.313-2.72-0.133-5.24 0-8 1-1 1-1 3.29-1.1zm17.7 68.1 1 2z" fill="#FCFDFF"/>
<path transform="translate(345 966)" d="m0 0c1.38-0.0207 1.38-0.0207 2.78-0.0417 1.95-0.0233 3.91-0.0406 5.86-0.0523 2.94-0.0266 5.89-0.101 8.83-0.177 13.2-0.184 23 1.21 33.2 10.2 8.41 8.34 10.6 17.1 10.8 28.6-0.0169 7.9-1.21 14.2-5.56 21h-2c-0.268 0.639-0.536 1.28-0.812 1.94-1.19 2.06-1.19 2.06-4.19 3.06-0.495 1.48-0.495 1.48-1 3-2 1.35-2 1.35-4.56 2.62-0.826 0.425-1.65 0.851-2.5 1.29-6.55 2.43-13.6 2.23-20.5 2.18-1.31-0.00212-1.31-0.00212-2.66-0.00429-2.77-0.00555-5.54-0.0181-8.31-0.0309-1.89-0.00502-3.78-0.00958-5.67-0.0137-4.61-0.011-9.22-0.0282-13.8-0.0488-1.43-2.87-1.14-5.33-1.15-8.53-0.00336-0.67-0.00672-1.34-0.0102-2.03-0.00952-2.22-0.0115-4.44-0.0125-6.66-0.00321-1.54-0.00658-3.08-0.0101-4.62-0.00599-3.23-0.00784-6.46-0.00725-9.68 1.02e-4 -4.14-0.0136-8.29-0.0308-12.4-0.0111-3.18-0.0131-6.36-0.0126-9.54-0.00118-1.53-0.00562-3.06-0.0133-4.58-0.00976-2.13-0.00694-4.27-8.95e-4 -6.4-0.00143-1.22-0.00285-2.43-0.00432-3.68 0.568-6.54 6.15-5.22 11.4-5.29zm1.89 13.4c-0.577 2.23-0.577 2.23-0.454 4.75 3.02e-4 0.961 6.04e-4 1.92 9.16e-4 2.91 0.0206 1.03 0.0413 2.07 0.0626 3.13 0.00566 1.06 0.0113 2.12 0.0172 3.22 0.0224 3.39 0.0726 6.79 0.123 10.2 0.0201 2.3 0.0383 4.6 0.0547 6.9 0.0441 5.64 0.111 11.3 0.195 16.9 4.01 2.23 7.55 2.31 12.1 2.25 1.14-0.0112 1.14-0.0112 2.3-0.0227 9.43-0.179 18.2-0.813 25.6-7.23 6.06-6.74 6.29-12.6 6.22-21.5-0.427-6.8-3.08-12.1-7.22-17.5h-2v-2c-1.01-0.454-2.02-0.908-3.06-1.38-0.568-0.255-1.14-0.51-1.72-0.773-6.43-2.47-12.1-3.19-18.9-3.16-0.841-0.0161-1.68-0.0322-2.55-0.0488-0.813-6.45e-4 -1.63-0.00129-2.46-0.00195-0.73-0.00298-1.46-0.00596-2.21-0.00903-2.76 0.492-4.04 1.46-6.09 3.37z" fill="#FCFDFF"/>
<path transform="translate(1241 984)" d="m0 0c1.82 1.06 1.82 1.06 4.57 3.12 2.27 0.76 2.27 0.76 4 1 0.186-0.959 0.186-0.959 0.375-1.94 0.206-0.681 0.412-1.36 0.625-2.06 2.52-1.26 3.85-0.919 6.62-0.562 0.817 0.102 1.63 0.204 2.48 0.309 0.626 0.0838 1.25 0.168 1.9 0.254 0.0508 7.85 0.0858 15.7 0.11 23.5 0.00891 2.67 0.0237 5.34 0.041 8 0.0243 3.84 0.0356 7.68 0.0444 11.5 0.0103 1.19 0.0206 2.38 0.0313 3.6 0.00146 10.8-1.93 17.8-9.24 26-5.75 3.85-13.1 3.69-19.7 3.64-1.31-0.0052-1.31-0.0052-2.65-0.0105-9.01-0.15-16.9-1.39-24.6-6.3 0.531-3.82 1.5-6.06 4-9 3.47 0.64 6.76 1.52 10.1 2.56 7.88 2.17 16.2 2.72 23.9-0.562 3.93-3.62 4.61-6.76 5-12v-3c-0.846 0.454-1.69 0.908-2.56 1.38-8.32 3.93-16.8 5.3-25.7 2.64-5.07-2.01-9.11-3.79-12.7-8.02v-2c-0.99-0.33-1.98-0.66-3-1-3.83-7.45-4.13-16.9-1.79-24.9 2.65-6.93 6.03-11.1 12.7-14.6 7.84-3.23 17.4-4.51 25.6-1.56zm6.57 5.12c1.48 0.99 1.48 0.99 3 2v-2h-3zm-31.5 11.8c-2.57 5.56-3.08 10.1-1.5 16 3.05 4.96 6.73 7.26 12 9.56 4.73 1.08 8.45 1.23 13.1-0.375 3.89-2.57 6.86-4.67 8.94-8.94 1.18-6.65 1.32-13-2.62-18.8-3.99-4.35-7.95-5.28-13.7-5.69-6.71 0.17-11.8 3.31-16.2 8.19zm33.5 8.25 1 3z" fill="#FCFDFF"/>
<path transform="translate(614 967)" d="m0 0c3.47 2.94 4.91 5.36 6.88 9.44l1 2c0.594 5.94-0.467 10.3-4 15-2.84 2.58-5.83 4.84-9 7 1.56 3.51 3.45 5.38 6.48 7.77 1.52 1.23 1.52 1.23 3.64 3.48 2 1.86 3.21 2.37 5.88 2.75 0.186-1.36 0.186-1.36 0.375-2.75 0.625-3.25 0.625-3.25 2.62-7.25 3.3 0.99 6.6 1.98 10 3-2.76 9.53-2.76 9.53-4.11 12.2-1.27 2.62-0.792 4.12 0.113 6.83 1.5 1.67 1.5 1.67 3 3v2h2c-0.547 3.37-1.05 5.08-3 8-2.31 0.5-2.31 0.5-5 0-0.825-0.846-1.65-1.69-2.5-2.56-2.19-2.69-2.19-2.69-4.81-2.5-2.97 1.17-5.74 2.57-8.53 4.12-5.26 2.28-11 2.12-16.6 2.12-0.725 0.0122-1.45 0.0245-2.2 0.0371-7.56 0.0204-13.1-1.34-18.7-6.6-1.28-1.16-1.28-1.16-2.59-2.34-3.34-3.75-3.33-7.24-3.26-12.2 0.583-5.56 3.46-10.1 7.22-14.1 2.06-1.12 2.06-1.12 4-2 1.81-1.23 1.81-1.23 3-3 0.251-2.63 0.251-2.63 0-5-0.66-0.33-1.32-0.66-2-1-3.01-5.95-3.61-11.6-2-18 1.95-4.77 5.58-7.53 10-10 6.41-2.22 16-2.55 22.1 0.562zm-20.1 9.44c-1.42 3.14-2.35 5.54-1.52 8.98 1.46 3.7 1.46 3.7 4.52 6.02 5.86 0.581 5.86 0.581 11-1.94 2.36-3.61 2.53-5.76 2.47-9.98-0.587-2.61-1.29-3.53-3.47-5.09-2.14-0.436-2.14-0.436-4.44-0.312-0.762 0.00387-1.52 0.00773-2.31 0.0117-2.52 0.336-4.13 0.91-6.25 2.3zm17 4 1 4zm-12 12 4 1zm-11 6 1 2zm-1 13c-2.09 3.08-2.87 5.38-3.62 9 0.936 4.49 3.88 6.54 7.62 9 3.3 1.1 5.84 1.17 9.31 1.19 1.66 0.0213 1.66 0.0213 3.36 0.043 4.5-0.312 8.08-0.985 11.3-4.23-0.0194-3.76-1.02-5.02-3.58-7.82-1.07-0.966-2.14-1.92-3.23-2.86-0.534-0.485-1.07-0.971-1.62-1.47-2.69-2.4-5.22-4.46-8.57-5.84v-2c-4.53 0-7.51 2.23-11 5zm29 13 1 2z" fill="#FBFCFE"/>
<path transform="translate(1494 961)" d="m0 0c1.19 0.00773 1.19 0.00773 2.41 0.0156 0.794-0.00516 1.59-0.0103 2.41-0.0156 2.09 0.266 2.09 0.266 4.09 2.27 0.328 2.71 0.131 5.25 0 8-0.33 0.33-0.66 0.66-1 1h1v16c5.22-1.91 5.22-1.91 10.3-4.09 3.33-1.14 6.16-1.18 9.67-1.16 1.79-0.00773 1.79-0.00773 3.62-0.0156 5.46 0.43 10.3 2.57 14.4 6.27 8.09 9.96 8.93 18.5 8 31-0.653 3.13-1.5 5.12-3 8-0.412 0.887-0.825 1.77-1.25 2.69-3.66 4.84-7.81 7.31-13.8 8.31-3.46 0.28-6.91 0.322-10.4 0.375-0.92 0.0374-1.84 0.0748-2.79 0.113-6.69 0.086-9.72-1.21-14.8-5.49h-2v5h-10c-1.49-2.98-1.14-5.67-1.15-8.99-0.00336-0.719-0.00672-1.44-0.0102-2.18-0.00952-2.38-0.0115-4.76-0.0125-7.15-0.00321-1.65-0.00658-3.3-0.0101-4.95-0.00599-3.46-0.00784-6.93-0.00725-10.4 1.02e-4 -4.45-0.0136-8.89-0.0308-13.3-0.0111-3.41-0.0131-6.82-0.0126-10.2-0.00118-1.64-0.00562-3.28-0.0133-4.92-0.00976-2.29-0.00694-4.58-8.95e-4 -6.87-0.00143-1.3-0.00285-2.61-0.00432-3.95 0.283-3.48 0.723-4.84 4.34-5.3zm10.9 40.3c-2.93 4.9-3.17 10.4-3 16 2.24 4.92 5.73 7.82 10 11 5.56 1.85 11.8 1.95 17.2-0.375 0.598-0.536 1.2-1.07 1.81-1.62v-2c0.99-0.33 1.98-0.66 3-1 3.03-5.6 2.49-11.8 2-18-1.71-5.31-4.64-7.76-9-11-8.17-4.08-16.6 0.653-22 7z" fill="#FAFBFD"/>
<path transform="translate(235 961)" d="m0 0c0.701 0.0142 1.4 0.0284 2.12 0.043 1.05 0.00967 1.05 0.00967 2.12 0.0195 1.88 0.168 1.88 0.168 3.88 1.17 0.33 9.24 0.66 18.5 1 28 0.66-0.66 1.32-1.32 2-2 6.38-4.25 10.3-5.15 18-5.19 1.2-0.0142 2.39-0.0284 3.62-0.043 3.25 0.222 5.46 0.833 8.38 2.23v2c0.598 0.103 1.2 0.206 1.81 0.312 5.03 1.58 8.16 7.18 10.6 11.6 3.13 7.66 3.12 18.4 0.125 26.1-2.99 5.52-7.38 10.6-13.1 13.2-4.52 1.07-8.81 1.13-13.4 1.11-1.33 0.0242-1.33 0.0242-2.68 0.0488-4.96 0.00372-8.18-0.231-12.3-3.36-1.33-0.681-2.66-1.35-4-2-0.33 1.65-0.66 3.3-1 5-1.65 0.0269-3.29 0.0463-4.94 0.0625-0.917 0.0116-1.83 0.0232-2.78 0.0352-2.29-0.0977-2.29-0.0977-3.29-1.1-0.106-2.33-0.147-4.63-0.145-6.97-0.00504-1.09-0.00504-1.09-0.0102-2.21-0.00954-2.42-0.0115-4.84-0.0125-7.26-0.00321-1.68-0.00657-3.35-0.0101-5.03-6e-3 -3.52-0.00784-7.03-0.00725-10.5 1.02e-4 -4.51-0.0136-9.03-0.0308-13.5-0.0111-3.46-0.0131-6.92-0.0126-10.4-0.00118-1.66-0.00562-3.33-0.0133-4.99-0.00976-2.32-0.00694-4.65-8.95e-4 -6.97-0.00562-0.693-0.0112-1.39-0.017-2.1 0.0446-6.73 0.0446-6.73 4.13-7.23zm10.7 40.2c-3.35 5.49-3.84 10.7-2.56 17 2.04 4.33 4.83 7.08 8.56 10 6.11 1.78 13.3 2.47 19.2-0.312 3.56-2.68 5.02-5.43 6.24-9.69 0.735-6.77 1.07-12.3-3-18-3.32-3.66-6.12-6.54-11.1-7.34-7.8-0.139-12.6 2.21-17.3 8.34z" fill="#FCFDFF"/>
<path transform="translate(1347 964)" d="m0 0c9.26 0.275 17.3 2.93 24.3 9.07 1.66 1.96 1.66 1.96 1.59 4.52-1.01 2.62-1.62 3.86-3.94 5.44-2.31 0.438-2.31 0.438-5 0-1.39-0.961-2.78-1.92-4.17-2.89-5.3-3.2-10.7-4.71-16.8-3.4-2.68 0.68-5.3 1.47-7.93 2.31-3.09 0.98-3.09 0.98-5.09 0.98-0.227 0.557-0.454 1.11-0.688 1.69-1.31 2.31-1.31 2.31-3.75 4.44-5.39 6.05-5.9 13.5-5.86 21.3 0.707 5.97 3.7 11.4 8.35 15.2 4.25 2.98 7.66 5.11 12.9 5.32 0.932 0.0374 1.86 0.0748 2.82 0.113 7.15 0.167 12.3-0.0996 18.3-4.3 2.88-1.81 2.88-1.81 5-1.81 2.56 1.37 4.13 2.67 5.88 5-0.109 2.44-0.109 2.44-1 5-2 1.73-2 1.73-4.56 3.19-0.826 0.489-1.65 0.977-2.5 1.48-10.9 4.94-25.2 5.1-36.5 1.43-9.07-4.13-18-12.8-21.8-22.2-2.3-10.3-2.33-22.8 3.34-31.9 6.99-10.5 15-16.5 27.3-19.6 3.24-0.467 6.43-0.427 9.7-0.465z" fill="#FCFDFF"/>
<path transform="translate(742,973)" d="m0 0v2h2c0 4 0 4-1.69 6.25-2.31 1.75-2.31 1.75-4.69 2.25-2.87-0.547-4.43-1.72-6.77-3.41-5.48-3.22-12.5-4.93-18.8-3.73-8.78 2.75-14 6.57-18.2 14.7-3.68 7.4-4 15.3-1.44 23.1 3.1 6.99 9.2 10.4 16 13.2 9.69 1.5 17 1.21 25.3-4.19 2.31-1.25 2.31-1.25 4.38-1.25 2.86 1.48 4.24 3.29 5.94 6 0.0625 2.12 0.0625 2.12-1 4-4.18 3-4.18 3-7 3v2c-10.9 3.95-26 5.53-37 1-10.3-5.53-18.5-13.6-22-25-1.78-13.8 1.09-24.3 8.88-35.8 14.6-15.4 39.6-18.3 56.1-4.25z" fill="#FCFDFF"/>
<path transform="translate(460 985)" d="m0 0c6.58 5.16 11.3 12 13.4 20.1v10c-14.2 0.33-28.4 0.66-43 1 0.994 4.97 1.6 6.5 5 10 6.77 3.48 15.7 2.97 23 1.32 2.04-0.684 4.04-1.49 6.02-2.32 5 5.62 5 5.62 5 9-10.6 5.67-10.6 5.67-16 6-0.788 0.0503-1.58 0.101-2.39 0.152-9.95 0.355-18.5-0.821-26.2-7.53-5.43-5.19-8.04-9.68-8.64-17.2-0.169-9.55 1.48-18.3 8.2-25.5 8.87-7.26 25-11 35.6-5.06zm-22.6 9.06v2c-0.763 0.227-1.53 0.454-2.31 0.688-3.3 1.61-4.25 2.96-5.69 6.31 0.33 1.32 0.66 2.64 1 4h31c-1.81-6.96-1.81-6.96-6-12-6.46-3.47-11.3-4.14-18-1zm8 36v1h5v-1h-5z" fill="#FCFDFF"/>
<path transform="translate(797 986)" d="m0 0c5.64 4.85 12.1 11 13 18.7 0.101 2.6 0.0948 5.19 0.0471 7.79 0.00322 0.885 0.00645 1.77 0.00977 2.68-0.0614 7.44-1.71 12.3-6.32 18.3-6.95 6.04-12.9 6.2-21.8 6.25-0.973 0.0206-1.95 0.0412-2.95 0.0625-9.15 0.0496-14.7-2.19-21.4-8.41-6.22-6.59-7.04-13.3-6.95-22 0.345-6.58 3.17-12.9 7.79-17.6 9.53-8.37 26.9-13.2 38.7-5.79zm-28.9 12.9c-4.06 4.59-4.89 10.5-4.64 16.4 0.639 4.77 2.74 7.83 6.28 10.9 4.09 2.98 6.92 3.36 11.9 3.44 1.03 0.0258 2.06 0.0516 3.12 0.0781 4.59-0.5 6.97-2.36 10.3-5.46 2.39-3.99 2.31-7.24 2.22-11.8 0.0155-0.786 0.0309-1.57 0.0469-2.38-0.0359-5.36-1.04-8.42-4.55-12.7-3.7-3.36-6.52-3.92-11.4-4.19-5.49 0.289-9.04 1.98-13.2 5.65zm29.6 8.54v10h1v-10h-1z" fill="#FCFDFF"/>
<path transform="translate(206,987)" d="m0 0v2c0.598 0.227 1.2 0.454 1.81 0.688 2.83 1.7 3.67 3.4 5.19 6.31 0.536 0.99 1.07 1.98 1.62 3 2.62 5.72 2.38 9.42 2.38 16h-44c0.66 1.98 1.32 3.96 2 6 0.103 0.742 0.206 1.49 0.312 2.25 0.557 1.98 0.557 1.98 2.81 2.88 1.42 0.433 1.42 0.433 2.88 0.875 1.11 0.371 2.23 0.743 3.38 1.12 6.79 1.64 11.8 0.736 18.3-1.47 2.33-0.656 2.33-0.656 6.33-0.656 2.38 1.62 2.91 2.63 3.56 5.44-0.562 2.56-0.562 2.56-2.94 4.75-8.8 5.1-20.1 4.73-29.8 2.69-7.08-1.94-11.7-5.15-16.2-10.9-4.23-7.8-4.8-15.9-3.12-24.6 1.93-6.39 5.07-11.4 10.2-15.7 11.6-6.13 23.5-6.65 35.3-0.75zm-31.8 12.9c-1.67 2.46-1.67 2.46-0.176 7.11h31c-1.06-5.28-2.3-8.77-6.54-12.3-3.58-2.31-6.98-3.47-11.3-3.25-5.12 1.26-9.34 4.68-12.9 8.41z" fill="#FBFCFE"/>
<path transform="translate(1181 987)" d="m0 0c3.89 3.44 6.63 8.56 7.41 13.7 0.108 2.49 0.0993 4.96 0.0391 7.45-0.00566 0.899-0.0113 1.8-0.0172 2.72-0.0222 2.84-0.0724 5.68-0.123 8.53-0.0201 1.94-0.0383 3.88-0.0547 5.82-0.0439 4.73-0.113 9.46-0.195 14.2h-11c-1.56-3.12-1.34-6.49-1.5-9.93-0.0406-0.787-0.0812-1.57-0.123-2.38-0.13-2.52-0.254-5.04-0.377-7.56-0.123-2.51-0.248-5.03-0.377-7.54-0.0806-1.56-0.158-3.13-0.23-4.69-0.186-5.04-0.186-5.04-1.39-9.89-4.48-2.83-8.77-3.44-14-3-5.17 2.32-8.98 5.07-12 10-0.498 2.94-0.723 5.31-0.707 8.24-0.0151 0.768-0.0302 1.54-0.0458 2.33-0.0427 2.44-0.0517 4.87-0.0596 7.3-0.0232 1.66-0.0485 3.32-0.0762 4.98-0.0627 4.05-0.0952 8.1-0.111 12.1-1.79 0.0539-3.58 0.0928-5.38 0.125-0.998 0.0232-2 0.0464-3.02 0.0703-2.6-0.195-2.6-0.195-4.6-2.2-0.254-2.2-0.254-2.2-0.259-4.97-0.0063-1.03-0.0126-2.07-0.0191-3.13 0.00405-1.12 0.0081-2.24 0.0123-3.4-0.00191-1.15-0.00383-2.29-0.0058-3.47-0.00136-2.43 0.00234-4.86 0.0107-7.28 0.0107-3.73 1.08e-4 -7.45-0.0127-11.2 0.00132-2.35 0.00388-4.71 0.00781-7.06-0.00405-1.12-0.0081-2.24-0.0123-3.4 0.0063-1.03 0.0126-2.07 0.0191-3.13 0.00159-0.913 0.00318-1.83 0.00482-2.77 0.254-2.2 0.254-2.2 2.25-4.2 2.16-0.195 2.16-0.195 4.62-0.125 1.23 0.0271 1.23 0.0271 2.48 0.0547 0.94 0.0348 0.94 0.0348 1.9 0.0703 0.33 1.65 0.66 3.3 1 5 5.88-1.89 5.88-1.89 11.6-4.12 7.9-2.91 17.5-2.61 24.3 2.75zm-4.94 17.4v9h1v-9h-1z" fill="#FCFDFF"/>
<path transform="translate(1e3 983)" d="m0 0c0.66 0.33 1.32 0.66 2 1v55h-11c-0.99-0.99-1.98-1.98-3-3-0.956 0.489-1.91 0.977-2.9 1.48-4.57 1.95-8.82 1.93-13.7 1.83-0.833 0.00322-1.67 0.00645-2.52 0.00977-7.77-0.068-12.1-1.92-17.9-7.32-3.99-5.64-4.16-10.7-4.17-17.4-0.00333-0.811-0.00666-1.62-0.0101-2.46-0.00505-1.71-0.00741-3.42-0.00725-5.13-0.0022-2.62-0.0204-5.24-0.0393-7.87-0.00293-1.66-0.00492-3.32-0.00586-4.98-0.00719-0.786-0.0144-1.57-0.0218-2.38 0.0234-5.54 0.0234-5.54 2.25-7.77 2.35-0.23 2.35-0.23 5.06-0.188 1.35 0.00967 1.35 0.00967 2.72 0.0195 2.21 0.168 2.21 0.168 3.21 1.17 0.0984 2.68 0.137 5.34 0.141 8.02 0.0183 1.66 0.0379 3.32 0.0586 4.98 0.0289 2.62 0.0508 5.25 0.0513 7.87 0.00334 2.53 0.0379 5.06 0.0776 7.58-0.00707 0.78-0.0141 1.56-0.0214 2.36 0.0932 4.19 0.353 5.75 3.05 9.15 3.75 2.87 6.49 3.18 11.1 3.22 1.42 0.0213 1.42 0.0213 2.87 0.043 3.55-0.304 5.69-1.38 8.38-3.67 2.99-3.56 2.46-7.81 2.49-12.2 0.0232-1.53 0.0473-3.05 0.0723-4.58 0.0352-2.4 0.0645-4.81 0.0779-7.21 0.0154-2.32 0.0556-4.64 0.0999-6.96-0.00191-0.719-0.00382-1.44-0.00578-2.18 0.0791-3.22 0.164-5 2.39-7.41 3.14-1.49 5.77-1.29 9.19-1.04zm-10 3v6h1v-6h-1z" fill="#FCFDFF"/>
<path transform="translate(834,983)" d="m0 0c2 2 2 2 2 5 1.79-0.681 1.79-0.681 3.62-1.38 1.45-0.552 2.91-1.09 4.38-1.62 0.924-0.357 1.85-0.714 2.8-1.08 3.7-1.06 6.92-1.22 10.8-1.23 1.28-0.0168 2.56-0.0335 3.88-0.0508 6.09 0.621 9.64 3.84 13.6 8.36 3.77 5.8 4.56 10.7 4.39 17.5-0.00566 0.877-0.0113 1.75-0.0172 2.66-0.0222 2.77-0.0724 5.54-0.123 8.31-0.0201 1.89-0.0383 3.78-0.0547 5.67-0.0439 4.61-0.113 9.22-0.195 13.8h-11c-1.47-2.94-1.18-5.63-1.25-8.91-0.033-1.42-0.0662-2.83-0.0996-4.25-0.0472-2.22-0.0915-4.45-0.131-6.67-0.0565-11.3-0.0565-11.3-2.52-22.2-1.89-1.53-1.89-1.53-4-2-0.66-0.33-1.32-0.66-2-1-6.52-0.553-9.53 0.497-15 4h-2c-0.309 0.949-0.619 1.9-0.938 2.88-1.06 3.12-1.06 3.12-2.06 5.12-0.226 2.48-0.401 4.93-0.535 7.41-0.043 0.73-0.086 1.46-0.13 2.21-0.136 2.33-0.267 4.67-0.397 7-0.0914 1.58-0.183 3.16-0.275 4.74-0.225 3.88-0.445 7.75-0.662 11.6h-11c-1.23-2.46-1.14-4.11-1.16-6.86-0.00961-1.01-0.0192-2.02-0.0291-3.06-0.00425-1.1-0.0085-2.19-0.0129-3.32-0.00855-1.68-0.00855-1.68-0.0173-3.4-0.00946-2.38-0.016-4.75-0.0198-7.13-0.00972-3.64-0.0407-7.29-0.0723-10.9-0.00653-2.31-0.0118-4.61-0.0156-6.92-0.0123-1.09-0.0247-2.19-0.0374-3.31 3e-3 -1.01 6e-3 -2.03 0.00909-3.07-0.00365-0.893-0.00729-1.79-0.011-2.71 0.367-2.28 0.367-2.28 1.67-4.08 2.8-1.99 5.39-1.51 8.7-1.21z" fill="#FCFDFF"/>
<path transform="translate(1421 983)" d="m0 0c1.19 0.16 1.19 0.16 2.41 0.324 0.794 0.0993 1.59 0.199 2.41 0.301 2.09 0.387 2.09 0.387 4.09 1.39-0.0157 1.19-0.0157 1.19-0.0317 2.41-0.0419 3.65-0.0677 7.31-0.0933 11-0.0168 1.25-0.0335 2.5-0.0508 3.79-0.0436 8.33 0.534 15.9 3.18 23.8 7.2 2.85 14.5 2.54 22 1 0.309-0.969 0.619-1.94 0.938-2.94 1.06-3.06 1.06-3.06 2.06-4.06 0.123-2.48 0.186-4.94 0.211-7.43 0.0281-1.53 0.0567-3.07 0.0859-4.6 0.0413-2.42 0.0781-4.85 0.104-7.27 0.0276-2.33 0.0735-4.67 0.122-7 0.00325-0.725 0.00651-1.45 0.00986-2.2 0.123-5.02 0.123-5.02 1.87-7.46 3.04-1.98 6.07-1.27 9.6-1.04 1 1 1 1 1.12 3.21-0.00222 0.975-0.00444 1.95-0.00673 2.95-7.55e-5 1.1-1.51e-4 2.2-2.29e-4 3.34-0.00516 1.2-0.0103 2.4-0.0156 3.63-0.00141 1.22-0.00283 2.44-0.00429 3.7-0.00562 3.91-0.0182 7.83-0.0309 11.7-0.00501 2.65-0.00958 5.29-0.0137 7.94-0.0111 6.5-0.0278 13-0.0488 19.5-1.6 0.108-3.21 0.186-4.81 0.25-0.893 0.0464-1.79 0.0928-2.71 0.141-2.48-0.391-2.48-0.391-4.3-2.41-0.388-0.655-0.776-1.31-1.18-1.98-0.897 0.712-0.897 0.712-1.81 1.44-4.67 3.33-9.56 2.78-15.1 2.81-0.898 0.0206-1.8 0.0412-2.72 0.0625-5 0.0295-8.32-0.102-12.4-3.31-0.887-0.619-1.77-1.24-2.69-1.88-2.47-2.27-3.34-3.95-4.31-7.12h-1c-1.12-4.49-1.16-8.91-1.17-13.5-0.00333-0.809-0.00666-1.62-0.0101-2.45-0.00505-1.7-0.00741-3.41-0.00725-5.11-0.0022-2.61-0.0204-5.23-0.0393-7.84-0.00293-1.66-0.00492-3.31-0.00586-4.97-0.00719-0.783-0.0144-1.57-0.0218-2.37 0.0328-7.73 0.0328-7.73 4.35-7.75z" fill="#FCFDFF"/>
<path transform="translate(913 983)" d="m0 0c1.3-0.00193 1.3-0.00193 2.63-0.00391 1.35 0.0058 1.35 0.0058 2.72 0.0117 0.894-0.00387 1.79-0.00773 2.71-0.0117 10.5 0.0157 10.5 0.0157 14.2 2.26 1.85 2.92 1.43 5.51 1.19 8.88-0.33 0.66-0.66 1.32-1 2-5.67-0.902-5.67-0.902-7.77-1.52-3.1-0.66-6.07-0.647-9.23-0.664-1.22-0.0142-2.43-0.0284-3.69-0.043-3.11 0.216-4.79 0.459-7.31 2.23-1.28 2.54-1.28 2.54-2 5 4.9 3.83 8.89 4.78 15 5.5 6.04 0.708 10.1 1.57 15 5.5 0.772 0.599 1.54 1.2 2.34 1.82 2.97 3.91 2.25 8.15 2.12 12.9-0.439 3.13-0.679 4.47-2.84 6.68-2.62 1.62-2.62 1.62-4.62 1.62-0.33 0.99-0.66 1.98-1 3-11.1 3.51-25.4 3.49-36.3-0.926-1.72-1.07-1.72-1.07-2.72-3.39 0-3.67 1.67-4.97 4-7.69 0.967 0.217 1.93 0.433 2.93 0.656 13.7 3.36 13.7 3.36 27.1 0.344v-8c-1.05-0.11-2.1-0.219-3.18-0.332-12-1.32-21.2-2.51-29.8-11.7-1.77-3.54-1.65-7.15-1-11 2.73-5.38 6.71-9.12 12-12 2.91-0.908 5.54-1.13 8.59-1.13z" fill="#FBFCFE"/>
<path transform="translate(479,983)" d="m0 0h10c3.23 6.17 6.24 12.2 8.29 18.8 1.66 5.03 3.99 9.8 6.46 14.5 1.25 2.69 1.25 2.69 1.25 6.69 1.93 0.0429 1.93 0.0429 4-1 1.4-2.68 1.4-2.68 2.17-4.81 0.924-2.43 1.99-4.77 3.08-7.13 2.51-5.5 4.94-11 7.34-16.6 0.796-1.83 1.6-3.66 2.41-5.48 0.339-0.798 0.678-1.6 1.03-2.42 0.973-1.58 0.973-1.58 3.85-2.46 3.17-0.127 4.51 0.168 7.12 1.88-0.388 5.44-1.37 9.22-3.96 14-1.36 2.61-2.33 5.3-3.32 8.06-1.12 3.03-2.43 5.98-3.72 8.95-0.669 1.67-1.34 3.33-2 5-0.808 1.98-1.62 3.96-2.44 5.94-0.617 1.5-0.617 1.5-1.25 3.03-1.33 3.07-2.79 6.05-4.32 9.04-4.71 0.34-9.29 0.492-14 0-2.61-2.29-2.95-2.9-4-6-0.79-1.85-1.58-3.71-2.38-5.56-0.419-1.04-0.838-2.08-1.27-3.16-1.38-3.33-2.88-6.58-4.42-9.84-2.27-4.86-4.23-9.73-5.99-14.8-1.28-3.55-2.78-7-4.31-10.4-0.637-2.19-0.637-2.19 0.363-6.19zm28 41v2h2v-2h-2z" fill="#FCFDFF"/>
<path transform="translate(1060,971)" d="m0 0c1.62-0.027 3.25-0.0464 4.88-0.0625 1.36-0.0174 1.36-0.0174 2.74-0.0352 2.38 0.0977 2.38 0.0977 4.38 1.1 0.414 2.5 0.414 2.5 0.625 5.56 0.0748 1.01 0.15 2.02 0.227 3.07 0.049 0.782 0.098 1.56 0.148 2.37 0.843 0.0606 1.69 0.121 2.55 0.184 1.64 0.126 1.64 0.126 3.32 0.254 1.64 0.122 1.64 0.122 3.3 0.246 2.82 0.316 2.82 0.316 4.82 1.32v8c-0.927 0.0606-1.85 0.121-2.81 0.184-1.8 0.126-1.8 0.126-3.63 0.254-1.19 0.0812-2.39 0.162-3.62 0.246-2.83-0.00703-2.83-0.00703-3.94 1.32-0.0884 2.45-0.115 4.87-0.0977 7.32 0.00212 1.1 0.00212 1.1 0.00429 2.22 0.00561 2.34 0.0182 4.69 0.0309 7.03 0.00501 1.59 0.00958 3.17 0.0137 4.76 0.011 3.89 0.0283 7.79 0.0488 11.7 3.16 0.85 5.85 1.08 9.12 1 4.65-0.11 4.65-0.11 6.88 1v9c-3.04 0.108-6.08 0.188-9.12 0.25-0.856 0.0335-1.71 0.067-2.59 0.102-5.64 0.0868-8.81-0.568-13.3-4.35-4.86-5.26-5.15-9.44-5.32-16.4-0.0208-0.705-0.0416-1.41-0.063-2.14-0.0652-2.24-0.124-4.48-0.183-6.72-0.0432-1.52-0.0868-3.05-0.131-4.57-0.107-3.73-0.208-7.45-0.307-11.2-1.13-0.144-2.27-0.289-3.44-0.438-3.56-0.562-3.56-0.562-4.56-1.56-0.188-2.94-0.188-2.94 0-6 2-2 2-2 5.62-2.12 1.67 0.0619 1.67 0.0619 3.38 0.125-0.0116-0.771-0.0232-1.54-0.0352-2.34-0.0135-1.5-0.0135-1.5-0.0273-3.04-0.0116-0.998-0.0232-2-0.0352-3.02 0.0977-2.6 0.0977-2.6 1.1-4.6zm0 53 1 2z" fill="#FCFDFF"/>
<path transform="translate(1391 961)" d="m0 0c0.803 0.0142 1.61 0.0284 2.43 0.043 1.21 0.00967 1.21 0.00967 2.44 0.0195 2 0.168 2 0.168 3 1.17 0.095 2.4 0.126 4.78 0.114 7.18 1.46e-4 0.751 2.92e-4 1.5 4.43e-4 2.28-6.99e-4 2.49-0.00849 4.99-0.0163 7.48-0.00186 1.72-0.00329 3.45-0.00429 5.17-0.00383 4.55-0.0137 9.1-0.0247 13.6-0.0102 4.64-0.0148 9.28-0.0198 13.9-0.0107 9.11-0.0278 18.2-0.0488 27.3h-11c-1.49-2.98-1.14-5.67-1.15-8.99-0.00336-0.719-0.00672-1.44-0.0102-2.18-0.00952-2.38-0.0115-4.76-0.0125-7.15-0.00321-1.65-0.00658-3.3-0.0101-4.95-0.00599-3.46-0.00784-6.93-0.00725-10.4 1.02e-4 -4.45-0.0136-8.89-0.0308-13.3-0.0111-3.41-0.0131-6.82-0.0126-10.2-0.00118-1.64-0.00562-3.28-0.0133-4.92-0.00976-2.29-0.00694-4.58-8.95e-4 -6.87-0.00143-1.3-0.00285-2.61-0.00432-3.95 0.285-3.5 0.727-4.87 4.38-5.27z" fill="#FCFDFF"/>
<path transform="translate(1028 961)" d="m0 0c0.803 0.0142 1.61 0.0284 2.43 0.043 1.21 0.00967 1.21 0.00967 2.44 0.0195 2 0.168 2 0.168 3 1.17 0.095 2.4 0.126 4.78 0.114 7.18 1.46e-4 0.751 2.92e-4 1.5 4.43e-4 2.28-6.99e-4 2.49-0.00849 4.99-0.0163 7.48-0.00186 1.72-0.00329 3.45-0.00429 5.17-0.00383 4.55-0.0137 9.1-0.0247 13.6-0.0102 4.64-0.0148 9.28-0.0198 13.9-0.0107 9.11-0.0278 18.2-0.0488 27.3h-11c-1.49-2.98-1.14-5.67-1.15-8.99-0.00336-0.719-0.00672-1.44-0.0102-2.18-0.00952-2.38-0.0115-4.76-0.0125-7.15-0.00321-1.65-0.00658-3.3-0.0101-4.95-0.00599-3.46-0.00784-6.93-0.00725-10.4 1.02e-4 -4.45-0.0136-8.89-0.0308-13.3-0.0111-3.41-0.0131-6.82-0.0126-10.2-0.00118-1.64-0.00562-3.28-0.0133-4.92-0.00976-2.29-0.00694-4.58-8.95e-4 -6.87-0.00143-1.3-0.00285-2.61-0.00432-3.95 0.285-3.5 0.727-4.87 4.38-5.27z" fill="#FCFDFF"/>
<path transform="translate(1107 982)" d="m0 0c5.81 0.412 5.81 0.412 8.03 1.52v55h-11c-2.48-2.48-2.26-3.23-2.27-6.65-0.00953-0.965-0.0191-1.93-0.0289-2.92 9.11e-4 -1.05 0.00182-2.09 0.00276-3.17-0.00429-1.07-0.00857-2.15-0.013-3.25-0.00575-2.27-0.00624-4.55-0.00191-6.82 0.00315-3.48-0.0203-6.95-0.0457-10.4-0.00227-2.21-0.00298-4.42-0.00195-6.62-0.00921-1.04-0.0184-2.08-0.0279-3.15 0.0774-12.1 0.0774-12.1 5.36-13.5z" fill="#FCFDFF"/>
<path transform="translate(1114,959)" d="m0 0c1.88 1.62 1.88 1.62 3 4 0.424 6.15 0.424 6.15-1 9-3.71 1.24-7.15 1.7-11 1-3-2.5-3-2.5-5-5 1.92-6.66 1.92-6.66 5-9 3.57-1.19 5.39-0.977 9 0z" fill="#FCFDFF"/>
<path transform="translate(849,718)" d="m0 0h1v76h-1v-76z"/>
<path transform="translate(745,825)" d="m0 0h1v19h-1v-19z" fill="#FCFDFF"/>
<path transform="translate(745,595)" d="m0 0h1v19h-1v-19z" fill="#FCFDFF"/>
<path transform="translate(1472,993)" d="m0 0h1v18h-1v-18z"/>
<path transform="translate(1430,999)" d="m0 0h1v14h-1v-14z"/>
<path transform="translate(837,1028)" d="m0 0h1v9h-1v-9z"/>
<path transform="translate(185,982)" d="m0 0h8v1h-8v-1z" fill="#FCFDFF"/>
<path transform="translate(1439,1040)" d="m0 0h6v1h-6v-1z"/>
<path transform="translate(957,983)" d="m0 0h5v1h-5v-1z" fill="#FCFDFF"/>
<path transform="translate(580,980)" d="m0 0h1v5h-1v-5z" fill="#FCFDFF"/>
<path transform="translate(365,977)" d="m0 0h5v1h-5v-1z"/>
<path transform="translate(333,987)" d="m0 0 1 4z" fill="#FCFDFF"/>
<path transform="translate(1062,970)" d="m0 0 4 1z" fill="#FCFDFF"/>
<path transform="translate(351,977)" d="m0 0c3 1 3 1 3 1z"/>
<path transform="translate(974,1040)" d="m0 0 2 1z"/>
<path transform="translate(737,984)" d="m0 0 2 1z"/>
<path transform="translate(1347,976)" d="m0 0 2 1z"/>
<path transform="translate(718,976)" d="m0 0 2 1z"/>
</svg>
